<?xml version="1.0" encoding="UTF-8" standalone="no"?>
<!-- Created with Inkscape (http://www.inkscape.org/) -->

<svg
   width="512"
   height="512"
   viewBox="0 0 512 512"
   version="1.1"
   id="svg5"
   xml:space="preserve"
   inkscape:version="1.2.2 (b0a8486541, 2022-12-01)"
   sodipodi:docname="nIRCw_bg.svg"
   inkscape:export-filename="nIRCw_bg.png"
   inkscape:export-xdpi="96"
   inkscape:export-ydpi="96"
   xmlns:inkscape="http://www.inkscape.org/namespaces/inkscape"
   xmlns:sodipodi="http://sodipodi.sourceforge.net/DTD/sodipodi-0.dtd"
   xmlns="http://www.w3.org/2000/svg"
   xmlns:svg="http://www.w3.org/2000/svg"><sodipodi:namedview
     id="namedview7"
     pagecolor="#505050"
     bordercolor="#eeeeee"
     borderopacity="1"
     inkscape:showpageshadow="0"
     inkscape:pageopacity="0"
     inkscape:pagecheckerboard="0"
     inkscape:deskcolor="#505050"
     inkscape:document-units="px"
     showgrid="false"
     inkscape:zoom="0.8577607"
     inkscape:cx="0.58291316"
     inkscape:cy="235.49692"
     inkscape:window-width="1920"
     inkscape:window-height="1024"
     inkscape:window-x="0"
     inkscape:window-y="0"
     inkscape:window-maximized="1"
     inkscape:current-layer="layer1" /><defs
     id="defs2"><inkscape:perspective
       sodipodi:type="inkscape:persp3d"
       inkscape:vp_x="0 : 256 : 1"
       inkscape:vp_y="0 : 1000 : 0"
       inkscape:vp_z="512 : 256 : 1"
       inkscape:persp3d-origin="256 : 170.66667 : 1"
       id="perspective17" /><clipPath
       clipPathUnits="userSpaceOnUse"
       id="clipPath4052"><circle
         style="fill:#1f1927;fill-opacity:1;stroke:none;stroke-width:10;stroke-dasharray:none;paint-order:stroke markers fill"
         id="circle4054"
         cx="256"
         cy="256"
         r="256" /></clipPath></defs><g
     inkscape:label="Layer 1"
     inkscape:groupmode="layer"
     id="layer1"><path
       id="path1081"
       style="fill:#343750;fill-opacity:1;stroke:none;stroke-width:9.24488;stroke-dasharray:none;paint-order:stroke markers fill"
       inkscape:transform-center-x="2.3318339"
       inkscape:transform-center-y="-0.62481517"
       d="M 117.65868,32.878242 A 236.66905,236.66905 0 0 0 31.031795,356.17418 236.66905,236.66905 0 0 0 354.32773,442.80106 236.66905,236.66905 0 0 0 440.95462,119.50513 236.66905,236.66905 0 0 0 117.65868,32.878242 Z M 93.286294,67.757701 c 16.820016,-8.473297 35.913356,1.54564 55.494176,-7.286749 -0.79034,0.428739 -1.60301,0.845147 -2.31306,1.316679 -16.13532,10.715187 -12.3882,32.118844 -27.98584,46.298029 -16.57333,15.06617 -39.183683,7.63355 -50.925503,26.55379 12.852753,-21.54926 -0.116256,-44.934404 18.540999,-61.894974 2.344286,-2.1311 4.743406,-3.75466 7.189228,-4.986775 z M 187.33777,22.299434 c 3.33557,-2.133156 7.19921,-3.720182 11.88566,-4.508249 24.24708,-4.077348 34.73659,19.218766 58.31532,23.366129 -20.4679,-0.777234 -28.81444,20.148146 -50.14097,23.734387 -21.7967,3.665291 -36.70094,-14.233793 -56.41209,-5.512543 17.52376,-9.241655 22.21634,-28.039655 36.35208,-37.079724 z M 67.241087,135.17365 c -11.305198,19.06013 5.576318,35.72725 -0.209501,57.32017 -5.819419,21.71844 -29.030209,27.63959 -28.495138,50.11777 0.535079,22.4782 24.001804,27.28992 30.848055,48.70684 6.804282,21.28566 -9.250534,38.73336 2.924466,57.2267 C 58.064288,327.78993 31.322097,329.9257 23.631754,305.8682 15.914437,281.72636 39.139629,267.94973 38.536448,242.61159 37.933303,217.27346 14.078676,204.61723 20.638532,180.13554 27.177239,155.73271 54.003926,156.60114 67.241087,135.17365 Z M 262.18394,41.698777 c 23.74556,1.366047 39.39848,-18.619316 61.9187,-8.975603 22.25289,9.529256 18.92855,34.175031 35.6087,50.430545 -16.56499,-10.704347 -34.61645,1.843246 -54.15925,-6.525478 -19.9568,-8.54601 -23.0842,-30.986013 -43.36815,-34.929464 z M 229.46221,148.2639 c 1.73912,-1.03996 3.68932,-1.79813 5.80073,-2.20231 9.65214,-1.84772 18.91046,4.43573 20.75817,14.08788 l 1.78164,9.30451 c 1.8477,9.65212 -4.43576,18.91043 -14.0879,20.75817 -9.65214,1.8477 -18.91045,-4.43576 -20.75816,-14.08789 l -1.78008,-9.30541 c -1.44352,-7.54072 2.07445,-14.84091 8.2856,-18.55495 z m -66.7491,38.61063 c 6.77413,-3.96859 15.58437,-3.01774 21.3759,2.8289 l 6.61699,6.67962 c 6.86402,6.92932 6.81154,18.03394 -0.11781,24.89798 -6.92934,6.86403 -18.03398,6.81154 -24.89799,-0.1178 l -6.61698,-6.67962 c -6.86403,-6.92936 -6.81154,-18.03397 0.11781,-24.89799 1.08271,-1.0725 2.2676,-1.97615 3.52208,-2.71109 z M 364.98579,87.493544 c 19.08968,13.145526 42.5685,5.31401 56.09864,25.304776 13.44253,19.86133 -2.27683,38.62767 2.52891,61.04124 -8.31569,-17.47858 -30.02243,-16.82127 -41.83374,-34.27245 -11.95217,-17.65932 -2.96847,-37.82626 -16.79381,-52.073566 z M 228.62847,224.28183 c 22.62262,-13.06118 27.33972,2.21109 49.96236,15.2723 19.47767,11.24543 33.72831,10.19327 37.31671,26.35124 l -32.13608,-4.39556 6.70798,8.65369 19.4195,25.04794 c -6.65585,5.90125 -17.70726,7.75679 -31.30747,15.60886 -22.62259,13.06116 -27.34043,28.33199 -49.96298,15.27087 -22.62266,-13.06123 -11.75661,-24.78131 -11.75657,-50.90362 -5e-5,-26.12236 -10.86604,-37.84456 11.75655,-50.90572 z m -75.02963,54.83786 c 1.50095,-0.86764 3.17883,-1.49209 4.99015,-1.81146 l 7.98165,-1.40778 c 8.28034,-1.46006 16.12221,4.02997 17.58228,12.31031 1.46006,8.28034 -4.03155,16.12309 -12.31187,17.58318 l -7.98165,1.40776 c -8.28035,1.46007 -16.12156,-4.03243 -17.58162,-12.31277 -1.14067,-6.46901 1.9611,-12.66955 7.32106,-15.76924 z m 160.03541,-92.39648 c 5.36448,-3.09185 12.28509,-2.67794 17.31709,1.54439 6.44096,5.4046 7.27697,14.94154 1.87237,21.38251 l -5.20998,6.20843 c -5.40462,6.44094 -14.94244,7.27539 -21.38342,1.87081 -6.44099,-5.40462 -7.27449,-14.94088 -1.86991,-21.38186 l 5.20999,-6.20842 c 1.18227,-1.40897 2.56184,-2.55009 4.06386,-3.41586 z M 72.672247,349.0985 c 12.63072,18.31866 34.852663,9.82884 52.118963,24.0851 16.98515,14.02412 13.30905,36.89584 32.58155,46.14435 C 134.469,410.24638 113.3836,425.92322 94.125406,410.02233 74.688015,393.97346 86.516472,370.0074 72.672247,349.0985 Z M 426.06985,181.5034 c 9.11762,20.96629 32.73809,27.15091 33.30794,51.08962 0.56972,23.93321 -22.72125,31.23438 -30.83616,52.59942 2.46715,-19.2103 -16.16116,-30.39468 -16.66279,-51.46743 -0.50179,-21.07927 17.58387,-33.14023 14.19101,-52.22161 z m -132.05546,85.92072 52.24106,7.14299 -7.13068,12.35047 13.49271,7.791 -5.67316,9.8264 -13.49429,-7.7901 -7.12912,12.34956 z M 159.584,420.29056 c 20.10013,7.76657 34.13569,-10.81767 56.0796,-8.19394 21.46514,2.56644 30.79748,23.05643 51.18954,21.32327 -23.33838,5.27459 -32.70721,29.02865 -57.11316,26.11056 -24.71266,-2.95477 -27.98557,-28.85851 -50.15598,-39.23989 z M 426.44402,292.9962 c -3.72445,22.61019 12.86222,40.60534 0.3826,61.07946 -12.56321,20.61126 -36.38493,13.90597 -54.82706,27.94316 13.12749,-14.88854 3.19655,-34.60193 14.29411,-52.80863 10.96473,-17.98878 32.67018,-18.37299 40.15035,-36.21399 z M 309.56695,397.70243 c 1.12682,-0.71569 2.31698,-1.38468 3.58105,-1.99867 19.12143,-9.28863 37.74782,2.38398 53.784,-9.09325 -15.88352,17.0306 -11.39315,41.48728 -33.16576,52.06376 -22.02548,10.69932 -38.60711,-8.49673 -62.24304,-6.02408 18.74542,-4.60166 21.77231,-24.61236 38.04376,-34.94773 z" /></g></svg>
