<?xml version="1.0" encoding="UTF-8" standalone="no"?>
<!-- Created with Inkscape (http://www.inkscape.org/) -->

<svg
   width="512"
   height="512"
   viewBox="0 0 512 512"
   version="1.1"
   id="svg1"
   xml:space="preserve"
   inkscape:version="1.3.2 (091e20ef0f, 2023-11-25)"
   sodipodi:docname="zakoNeko.svg"
   inkscape:export-filename="zakoNeko.png"
   inkscape:export-xdpi="192"
   inkscape:export-ydpi="192"
   xmlns:inkscape="http://www.inkscape.org/namespaces/inkscape"
   xmlns:sodipodi="http://sodipodi.sourceforge.net/DTD/sodipodi-0.dtd"
   xmlns="http://www.w3.org/2000/svg"
   xmlns:svg="http://www.w3.org/2000/svg"><sodipodi:namedview
     id="namedview1"
     pagecolor="#ffffff"
     bordercolor="#000000"
     borderopacity="0.25"
     inkscape:showpageshadow="2"
     inkscape:pageopacity="0.0"
     inkscape:pagecheckerboard="0"
     inkscape:deskcolor="#d1d1d1"
     inkscape:document-units="px"
     inkscape:zoom="1.3994715"
     inkscape:cx="155.77309"
     inkscape:cy="231.15869"
     inkscape:window-width="1920"
     inkscape:window-height="1004"
     inkscape:window-x="0"
     inkscape:window-y="0"
     inkscape:window-maximized="1"
     inkscape:current-layer="layer1" /><defs
     id="defs1"><filter
       inkscape:collect="always"
       style="color-interpolation-filters:sRGB"
       id="filter156"
       x="-0.030937641"
       y="-0.024412291"
       width="1.0618753"
       height="1.0488246"><feGaussianBlur
         inkscape:collect="always"
         stdDeviation="4.0898976"
         id="feGaussianBlur156" /></filter></defs><g
     inkscape:groupmode="layer"
     id="layer2"
     inkscape:label="Layer 2"><rect
       style="opacity:1;fill:#c9e9ef;fill-opacity:1;stroke:none;stroke-width:0.894427;stroke-linecap:round;stroke-linejoin:round;stroke-miterlimit:51.4;stroke-dasharray:none;stroke-opacity:1"
       id="rect78"
       width="512"
       height="102.39999"
       x="0"
       y="409.60001"
       ry="0" /><rect
       style="opacity:1;fill:#c9e9ef;fill-opacity:1;stroke:none;stroke-width:1.50266;stroke-linecap:round;stroke-linejoin:round;stroke-miterlimit:51.4;stroke-dasharray:none;stroke-opacity:1"
       id="rect161"
       width="512"
       height="102.4"
       x="0"
       y="0" /><rect
       style="opacity:1;fill:#e8b1d5;fill-opacity:1;stroke:none;stroke-width:1.50266;stroke-linecap:round;stroke-linejoin:round;stroke-miterlimit:51.4;stroke-dasharray:none;stroke-opacity:1"
       id="rect162"
       width="512"
       height="102.4"
       x="0"
       y="102.4" /><rect
       style="opacity:1;fill:#fcf5fa;fill-opacity:1;stroke:none;stroke-width:1.50266;stroke-linecap:round;stroke-linejoin:round;stroke-miterlimit:51.4;stroke-dasharray:none;stroke-opacity:1"
       id="rect163"
       width="512"
       height="102.4"
       x="0"
       y="204.8" /><rect
       style="opacity:1;fill:#e8b1d5;fill-opacity:1;stroke:none;stroke-width:1.50266;stroke-linecap:round;stroke-linejoin:round;stroke-miterlimit:51.4;stroke-dasharray:none;stroke-opacity:1"
       id="rect164"
       width="512"
       height="102.4"
       x="0"
       y="307.20001" /></g><g
     inkscape:label="Layer 1"
     inkscape:groupmode="layer"
     id="layer1"><g
       id="g78"
       style="mix-blend-mode:normal;fill:#888dcd;fill-opacity:1;stroke:none;filter:url(#filter156)"
       transform="translate(-15.318824,3.8543443)"><path
         style="fill:#888dcd;fill-opacity:1;stroke:none;stroke-width:2;stroke-linecap:round;stroke-linejoin:round;stroke-miterlimit:51.4;stroke-dasharray:none;stroke-opacity:1"
         d="m 241.05083,324.16306 9.45102,58.7934 9.7619,73.53615 5.64466,2.92831 c 0,0 5.75592,1.69834 8.61866,0.36 2.86275,-1.33834 5.58092,-3.03259 5.58092,-3.03259 l -7.54258,-73.51436 -6.53362,-63.18826 -4.78886,1.69318 -0.31392,-2.66797 z"
         id="path1" /><path
         style="fill:#888dcd;fill-opacity:1;stroke:none;stroke-width:2;stroke-linecap:round;stroke-linejoin:round;stroke-miterlimit:51.4;stroke-dasharray:none;stroke-opacity:1"
         d="m 295.58309,302.47753 50.92446,38.71064 59.80916,44.8518 2.35113,-0.0505 7.06236,-6.65888 c 0,0 0.88012,-4.36421 0.94399,-5.78485 0.0639,-1.42064 -0.25736,-2.23534 -0.25736,-2.23534 l -101.50476,-85.07231 -11.04047,6.4055 1.10561,2.17214 z"
         id="path2" /><path
         style="opacity:1;fill:#888dcd;fill-opacity:1;stroke:none;stroke-width:2;stroke-linecap:round;stroke-linejoin:round;stroke-miterlimit:51.4;stroke-dasharray:none;stroke-opacity:1"
         d="m 252.46234,167.2131 4.49215,2.91264 5.21777,8.55155 -5.7425,8.83037 -8.83424,-14.03459 -0.39597,-9.26506 z"
         id="path68" /><path
         style="opacity:1;fill:#888dcd;fill-opacity:1;stroke:none;stroke-width:2;stroke-linecap:round;stroke-linejoin:round;stroke-miterlimit:51.4;stroke-dasharray:none;stroke-opacity:1"
         d="m 249.53378,156.58217 c 1.75562,-1.98785 2.6526,4.02764 2.76805,6.32664 0.11467,2.28359 -0.49107,4.90958 -2.10612,6.52808 -0.82417,0.82593 -2.1802,1.2859 -3.32903,1.08187 -2.37567,-0.42191 -5.69282,-4.47083 -5.69282,-4.47083 z"
         id="path55"
         sodipodi:nodetypes="saaacs" /><path
         style="opacity:1;fill:#888dcd;fill-opacity:1;stroke:none;stroke-width:2;stroke-linecap:round;stroke-linejoin:round;stroke-miterlimit:51.4;stroke-dasharray:none;stroke-opacity:1"
         d="m 235.31601,173.07154 c 0.23416,1.2787 0.71242,1.95536 1.48981,2.56753 1.90262,1.49825 4.61512,2.66178 6.96369,2.07109 1.94772,-0.48987 3.98636,-2.4334 4.27538,-4.24542 0.28902,-1.81203 -0.0825,-3.49498 -0.86384,-4.82162 -0.78132,-1.32663 -2.43616,-2.96257 -3.44335,-3.26772 -1.00719,-0.30516 -6.42114,1.27685 -6.42114,1.27685 z"
         id="path56"
         sodipodi:nodetypes="casssscc" /><path
         id="path58"
         style="opacity:1;fill:#888dcd;fill-opacity:1;stroke:none;stroke-width:2;stroke-linecap:round;stroke-linejoin:round;stroke-miterlimit:51.4;stroke-dasharray:none;stroke-opacity:1"
         inkscape:label="path58"
         d="m 153.98633,180.6543 c -2.0803,0.93621 -6.22371,2.94096 -7.92188,6.95312 -1.69816,4.01218 -1.60156,4.56446 -1.60156,4.56446 0,0 4.85175,-4.80263 5.92578,-5.5586 1.07403,-0.75597 4.81446,-3.02148 4.81445,-3.02148 0,0 -4.43554,5.66129 -4.43554,10.21093 0,4.54965 0.93166,8.22986 2.55469,11.34961 1.62302,3.11976 5.06054,6.88477 5.06054,6.88477 l 1.42774,0.83398 c 0,0 -0.68032,-4.90163 -1.26758,-7.06445 -0.58726,-2.16281 -2.12891,-8.51786 -2.12891,-10.88672 0,-2.36886 1.34961,-5.23633 1.34961,-5.23633 0,0 -0.61989,5.94466 0.0918,8.92383 0.71171,2.97917 3.22354,8.04029 5.05078,9.75781 1.82723,1.71753 5.17935,5.24266 8.05664,6.33789 2.8773,1.09523 2.01291,1.07774 5.25391,1.69727 3.24098,0.61952 6.69531,1.81055 6.69531,1.81055 0,0 -2.54349,-6.42099 -3.58203,-8.91016 -1.03854,-2.48917 -1.98288,-7.08671 -2.28711,-8.57422 -0.30423,-1.48751 -0.48438,-5.53906 -0.48438,-5.53906 l -8.06836,-5.19336 c 0.0556,-1.55857 -0.0332,-3.26201 -0.0332,-4.42187 0,-2.63759 -3.04101,-2.76758 -3.04101,-2.76758 -2.09441,0.76781 -2.93919,-6.11721 -3.87241,-5.32767 z"
         sodipodi:nodetypes="cscscssccsscsssscssccsccc" /><path
         style="fill:#888dcd;fill-opacity:1;stroke:none;stroke-width:2;stroke-linecap:round;stroke-linejoin:round;stroke-miterlimit:51.4;stroke-dasharray:none;stroke-opacity:1"
         d="m 213.50315,247.77695 c 0,0 -20.91074,18.5263 -27.44355,22.17041 -6.5328,3.6441 -52.51129,27.34027 -52.51129,27.34027 l -1.01976,5.17188 -2.37235,5.92786 -30.549721,-7.2091 c 0,0 0.335414,-7.37969 0.712251,-9.32457 0.37684,-1.94489 4.10638,-12.53373 4.10638,-12.53373 l 3.9007,-4.57584 48.95003,-43.28712 46.27535,-37.5425 35.10083,-17.33798 c 0,0 19.81359,-6.15136 25.75525,-7.64577 5.94167,-1.4944 83.15422,-22.91315 83.15422,-22.91315 0,0 3.36766,-0.72578 7.04254,-0.76864 3.67489,-0.0429 9.95686,1.77344 12.68677,2.69684 2.72991,0.92339 6.94762,2.22132 7.8247,3.47984 0.87708,1.25853 0.91476,2.26017 0.75971,2.97644 -0.15505,0.71628 -9.56649,26.72929 -9.56649,26.72929 l -11.0888,-2.97903 c 0,0 -33.42145,18.84043 -36.54719,20.44674 -3.12574,1.6063 -15.77424,8.19146 -20.91534,9.7178 -5.1411,1.52634 -23.19794,7.99039 -23.19794,7.99039 l -7.48296,2.58493"
         id="path4" /><path
         style="fill:#888dcd;fill-opacity:1;stroke:none;stroke-width:2;stroke-linecap:round;stroke-linejoin:round;stroke-miterlimit:51.4;stroke-dasharray:none;stroke-opacity:1"
         d="m 196.11331,210.6524 34.33981,74.16844 3.78378,18.34974 3.28547,2.30512 2.95407,18.75279 20.18993,-4.86183 0.13923,2.77738 15.38346,-7.49102 1.25149,1.73189 17.27684,-12.0983 -0.46596,-1.33724 10.74535,-8.12078 -1.02892,-2.4603 11.48236,-6.24553 -11.43687,-11.05494 0.036,-7.04384 -13.67572,-14.26615 -38.86541,-57.72016"
         id="path3"
         inkscape:label="path3" /><path
         style="opacity:1;fill:#888dcd;fill-opacity:1;stroke:none;stroke-width:2;stroke-linecap:round;stroke-linejoin:round;stroke-miterlimit:51.4;stroke-dasharray:none;stroke-opacity:1"
         d="m 113.11859,278.78638 19.99604,14.53046"
         id="path6" /><path
         style="opacity:1;fill:#888dcd;fill-opacity:1;stroke:none;stroke-width:2;stroke-linecap:round;stroke-linejoin:round;stroke-miterlimit:51.4;stroke-dasharray:none;stroke-opacity:1"
         d="m 105.63014,285.33418 c 0,0 6.00356,0.10029 10.83713,1.70398 4.83357,1.60368 11.9296,5.00139 11.9296,5.00139"
         id="path7" /><path
         style="opacity:1;fill:#888dcd;fill-opacity:1;stroke:none;stroke-width:2;stroke-linecap:round;stroke-linejoin:round;stroke-miterlimit:51.4;stroke-dasharray:none;stroke-opacity:1"
         d="m 117.47045,287.825 -3.27315,13.20289"
         id="path8" /><path
         style="opacity:1;fill:#888dcd;fill-opacity:1;stroke:none;stroke-width:2;stroke-linecap:round;stroke-linejoin:round;stroke-miterlimit:51.4;stroke-dasharray:none;stroke-opacity:1"
         d="m 106.26516,285.59054 -1.73674,13.53603"
         id="path9" /><path
         style="opacity:1;fill:#888dcd;fill-opacity:1;stroke:none;stroke-width:2;stroke-linecap:round;stroke-linejoin:round;stroke-miterlimit:51.4;stroke-dasharray:none;stroke-opacity:1"
         d="m 127.54,292.10457 -3.16885,10.49624"
         id="path10"
         inkscape:label="path10" /><path
         style="opacity:1;fill:#888dcd;fill-opacity:1;stroke:none;stroke-width:2;stroke-linecap:round;stroke-linejoin:round;stroke-miterlimit:51.4;stroke-dasharray:none;stroke-opacity:1"
         d="m 350.70794,151.71813 1.63691,24.43772"
         id="path11" /><path
         style="opacity:1;fill:#888dcd;fill-opacity:1;stroke:none;stroke-width:2;stroke-linecap:round;stroke-linejoin:round;stroke-miterlimit:51.4;stroke-dasharray:none;stroke-opacity:1"
         d="m 352.57394,171.34162 c 0,0 1.98144,-9.76452 2.48647,-11.30173 0.50502,-1.53721 5.37467,-12.10444 5.37467,-12.10444"
         id="path12" /><path
         style="opacity:1;fill:#888dcd;fill-opacity:1;stroke:none;stroke-width:2;stroke-linecap:round;stroke-linejoin:round;stroke-miterlimit:51.4;stroke-dasharray:none;stroke-opacity:1"
         d="m 353.39649,169.81221 c 0,0 5.15006,2.11378 6.20081,2.34428 1.05075,0.2305 5.09119,1.33436 5.09119,1.33436"
         id="path13" /><path
         style="opacity:1;fill:#888dcd;fill-opacity:1;stroke:none;stroke-width:2;stroke-linecap:round;stroke-linejoin:round;stroke-miterlimit:51.4;stroke-dasharray:none;stroke-opacity:1"
         d="m 355.83752,160.05525 11.95406,4.23229"
         id="path14" /><path
         style="opacity:1;fill:#888dcd;fill-opacity:1;stroke:none;stroke-width:2;stroke-linecap:round;stroke-linejoin:round;stroke-miterlimit:51.4;stroke-dasharray:none;stroke-opacity:1"
         d="m 359.78249,150.06254 c 0,0 5.97402,2.41236 6.53203,2.88859 0.55801,0.47623 4.81053,2.78364 4.81053,2.78364"
         id="path15" /><path
         style="opacity:1;fill:#888dcd;fill-opacity:1;stroke:none;stroke-width:2;stroke-linecap:round;stroke-linejoin:round;stroke-miterlimit:51.4;stroke-dasharray:none;stroke-opacity:1"
         d="m 239.65902,315.6282 c 0,0 11.5027,-1.8899 13.508,-2.51293 2.00529,-0.62303 20.00471,-7.41896 23.03725,-9.55732 3.03254,-2.13835 21.31762,-13.87595 22.76484,-14.81995 1.44721,-0.944 0.51173,0.61578 1.50082,0.30426 0.98909,-0.31151 3.65966,-3.34405 4.94418,-4.20576 1.28453,-0.86171 3.6767,-4.07712 3.6767,-4.07712"
         id="path16" /><path
         style="opacity:1;fill:#888dcd;fill-opacity:1;stroke:none;stroke-width:2;stroke-linecap:round;stroke-linejoin:round;stroke-miterlimit:51.4;stroke-dasharray:none;stroke-opacity:1"
         d="m 238.2614,315.80477 1.21243,9.06626 20.89231,-5.38932 0.14043,3.51041 15.79466,-7.92877 1.10071,1.49279 17.35245,-12.26573 -0.52407,-1.50783 10.85147,-7.88565 -1.049,-2.5428 11.60235,-6.25652 -6.09708,-5.78726 -3.53924,3.71733 -3.67818,3.80556 c 0,0 -1.06516,0.94002 -1.49528,0.97966 -0.43011,0.0396 -1.08405,-0.89702 -1.31384,-0.73707 -0.22978,0.15994 -23.46717,15.86971 -23.46717,15.86971 0,0 -12.76768,5.45358 -15.66417,6.22396 -2.89648,0.77039 -6.87963,2.81099 -10.11141,3.28088 -3.23179,0.46988 -12.00737,2.35439 -12.00737,2.35439 z"
         id="path17"
         inkscape:label="path17" /><path
         style="opacity:1;fill:#888dcd;fill-opacity:1;stroke:none;stroke-width:2;stroke-linecap:round;stroke-linejoin:round;stroke-miterlimit:51.4;stroke-dasharray:none;stroke-opacity:1"
         d="m 250.83206,383.80356 21.55436,-1.49717 5.48223,53.75666 -20.27296,1.82636 z"
         id="path18" /><path
         style="opacity:1;fill:#888dcd;fill-opacity:1;stroke:none;stroke-width:2;stroke-linecap:round;stroke-linejoin:round;stroke-miterlimit:51.4;stroke-dasharray:none;stroke-opacity:1"
         d="m 346.93514,341.34793 13.47451,-16.75847 40.62506,33.96746 -12.12295,14.42514 z"
         id="path19" /><path
         style="opacity:1;fill:#888dcd;fill-opacity:1;stroke:none;stroke-width:2;stroke-linecap:round;stroke-linejoin:round;stroke-miterlimit:51.4;stroke-dasharray:none;stroke-opacity:1"
         d="m 257.53967,439.2216 c 0,0 3.04365,-4.25836 5.41355,-5.21295 2.3699,-0.95459 5.6377,-1.71479 7.90613,-1.24397 2.26844,0.47083 3.77124,1.65138 4.80969,2.27672 1.03845,0.62535 2.31062,1.94748 2.31062,1.94748 l 1.95085,18.79251 -0.65253,1.44404 c 0,0 -2.46799,1.97259 -3.84345,2.40666 -1.37545,0.43406 -4.28813,1.02007 -5.70525,0.70636 -1.41713,-0.31371 -3.41275,-0.60205 -4.97327,-1.21058 -1.56052,-0.60852 -3.91049,-2.0184 -4.28347,-2.30079 -0.37298,-0.28239 -0.44805,-0.72344 -0.44805,-0.72344 z"
         id="path20" /><path
         style="opacity:1;fill:#888dcd;fill-opacity:1;stroke:none;stroke-width:2;stroke-linecap:round;stroke-linejoin:round;stroke-miterlimit:51.4;stroke-dasharray:none;stroke-opacity:1"
         d="m 258.06946,441.84661 19.9338,-2.60972"
         id="path21" /><path
         style="opacity:1;fill:#888dcd;fill-opacity:1;stroke:none;stroke-width:2;stroke-linecap:round;stroke-linejoin:round;stroke-miterlimit:51.4;stroke-dasharray:none;stroke-opacity:1"
         d="m 262.33206,441.31511 1.70237,3.61976 2.11955,1.42227 7.52556,-0.68639 1.84984,-1.79986 0.33775,-3.89194"
         id="path22" /><path
         style="opacity:1;fill:#888dcd;fill-opacity:1;stroke:none;stroke-width:2;stroke-linecap:round;stroke-linejoin:round;stroke-miterlimit:51.4;stroke-dasharray:none;stroke-opacity:1"
         d="m 390.1014,374.02319 c 0,0 -0.79977,-1.79853 -0.79977,-3.10574 0,-1.30721 0.73822,-3.96953 1.49725,-5.48177 0.75903,-1.51224 2.26545,-3.3448 3.3336,-3.80075 1.06815,-0.45596 3.14178,-1.84218 4.05235,-1.84218 0.91057,0 3.45179,-0.30912 3.83187,-0.20258 0.38007,0.10655 14.15075,11.63438 14.15075,11.63438 0,0 0.71449,1.04734 0.71449,1.93328 0,0.88595 -1.1935,6.16515 -1.1935,6.16515 l -6.50493,6.36928 -3.06299,0.19496 z"
         id="path23" /><path
         style="opacity:1;fill:#888dcd;fill-opacity:1;stroke:none;stroke-width:2;stroke-linecap:round;stroke-linejoin:round;stroke-miterlimit:51.4;stroke-dasharray:none;stroke-opacity:1"
         d="M 392.75487,375.78365 403.57346,361.1903"
         id="path24" /><path
         style="opacity:1;fill:#888dcd;fill-opacity:1;stroke:none;stroke-width:2;stroke-linecap:round;stroke-linejoin:round;stroke-miterlimit:51.4;stroke-dasharray:none;stroke-opacity:1"
         d="m 395.07414,373.79731 3.2696,1.85268 3.24185,-0.1268 3.34516,-4.61473 -0.52862,-3.91886 -2.25964,-3.27371"
         id="path25" /><path
         style="opacity:1;fill:#888dcd;fill-opacity:1;stroke:none;stroke-width:2;stroke-linecap:round;stroke-linejoin:round;stroke-miterlimit:51.4;stroke-dasharray:none;stroke-opacity:1"
         d="m 258.72395,310.98853 0.15163,6.22923"
         id="path26" /><path
         style="opacity:1;fill:#888dcd;fill-opacity:1;stroke:none;stroke-width:2;stroke-linecap:round;stroke-linejoin:round;stroke-miterlimit:51.4;stroke-dasharray:none;stroke-opacity:1"
         d="m 241.70439,315.4473 c 0.7847,4.30378 1.04773,5.90321 1.04773,5.90321"
         id="path27" /><path
         style="opacity:1;fill:#888dcd;fill-opacity:1;stroke:none;stroke-width:2;stroke-linecap:round;stroke-linejoin:round;stroke-miterlimit:51.4;stroke-dasharray:none;stroke-opacity:1"
         d="m 274.092,305.01538 c 0.10446,0.34819 1.11758,5.80018 1.11758,5.80018"
         id="path28" /><path
         style="opacity:1;fill:#888dcd;fill-opacity:1;stroke:none;stroke-width:2;stroke-linecap:round;stroke-linejoin:round;stroke-miterlimit:51.4;stroke-dasharray:none;stroke-opacity:1"
         d="m 288.18319,296.21668 2.86466,5.31006"
         id="path29" /><path
         style="opacity:1;fill:#888dcd;fill-opacity:1;stroke:none;stroke-width:2;stroke-linecap:round;stroke-linejoin:round;stroke-miterlimit:51.4;stroke-dasharray:none;stroke-opacity:1"
         d="m 299.37786,288.69404 2.02461,3.81692"
         id="path30" /><path
         style="opacity:1;fill:#888dcd;fill-opacity:1;stroke:none;stroke-width:2;stroke-linecap:round;stroke-linejoin:round;stroke-miterlimit:51.4;stroke-dasharray:none;stroke-opacity:1"
         d="m 243.00994,304.75895 27.23129,-13.8215 7.2448,-3.56207 19.13723,-10.55204"
         id="path31" /><path
         style="opacity:1;fill:#888dcd;fill-opacity:1;stroke:none;stroke-width:2;stroke-linecap:round;stroke-linejoin:round;stroke-miterlimit:51.4;stroke-dasharray:none;stroke-opacity:1"
         d="m 247.04116,302.95441 3.12028,7.42328"
         id="path32" /><path
         style="opacity:1;fill:#888dcd;fill-opacity:1;stroke:none;stroke-width:2;stroke-linecap:round;stroke-linejoin:round;stroke-miterlimit:51.4;stroke-dasharray:none;stroke-opacity:1"
         d="m 258.54,297.21115 4.48188,8.39399"
         id="path33" /><path
         style="opacity:1;fill:#888dcd;fill-opacity:1;stroke:none;stroke-width:2;stroke-linecap:round;stroke-linejoin:round;stroke-miterlimit:51.4;stroke-dasharray:none;stroke-opacity:1"
         d="m 271.67107,290.68147 4.13878,8.25443"
         id="path34" /><path
         style="opacity:1;fill:#888dcd;fill-opacity:1;stroke:none;stroke-width:2;stroke-linecap:round;stroke-linejoin:round;stroke-miterlimit:51.4;stroke-dasharray:none;stroke-opacity:1"
         d="m 284.32604,283.69844 3.72513,7.59907"
         id="path35" /><path
         style="opacity:1;fill:#888dcd;fill-opacity:1;stroke:none;stroke-width:2;stroke-linecap:round;stroke-linejoin:round;stroke-miterlimit:51.4;stroke-dasharray:none;stroke-opacity:1"
         d="m 295.3908,277.69882 3.77872,9.24788"
         id="path36" /><path
         style="opacity:1;fill:#888dcd;fill-opacity:1;stroke:none;stroke-width:2;stroke-linecap:round;stroke-linejoin:round;stroke-miterlimit:51.4;stroke-dasharray:none;stroke-opacity:1"
         d="m 234.71758,217.56314 -0.30079,5.3388"
         id="path37" /><path
         style="opacity:1;fill:#888dcd;fill-opacity:1;stroke:none;stroke-width:2;stroke-linecap:round;stroke-linejoin:round;stroke-miterlimit:51.4;stroke-dasharray:none;stroke-opacity:1"
         d="m 241.79199,212.74822 0.42847,15.90329"
         id="path38" /><path
         style="opacity:1;fill:#888dcd;fill-opacity:1;stroke:none;stroke-width:2;stroke-linecap:round;stroke-linejoin:round;stroke-miterlimit:51.4;stroke-dasharray:none;stroke-opacity:1"
         d="m 231.84108,221.04493 11.94703,9.569 23.84522,45.19099 5.8264,10.47879"
         id="path39" /><path
         style="opacity:1;fill:#888dcd;fill-opacity:1;stroke:none;stroke-width:2;stroke-linecap:round;stroke-linejoin:round;stroke-miterlimit:51.4;stroke-dasharray:none;stroke-opacity:1"
         d="m 221.69222,223.80803 14.56615,11.46314 28.95836,53.8579"
         id="path40" /><path
         style="opacity:1;fill:#888dcd;fill-opacity:1;stroke:none;stroke-width:2;stroke-linecap:round;stroke-linejoin:round;stroke-miterlimit:51.4;stroke-dasharray:none;stroke-opacity:1"
         d="m 233.50928,232.70346 4.02309,-5.90953"
         id="path41" /><path
         style="opacity:1;fill:#888dcd;fill-opacity:1;stroke:none;stroke-width:2;stroke-linecap:round;stroke-linejoin:round;stroke-miterlimit:51.4;stroke-dasharray:none;stroke-opacity:1"
         d="m 243.06942,247.28704 6.34086,-4.1862"
         id="path42" /><path
         style="opacity:1;fill:#888dcd;fill-opacity:1;stroke:none;stroke-width:2;stroke-linecap:round;stroke-linejoin:round;stroke-miterlimit:51.4;stroke-dasharray:none;stroke-opacity:1"
         d="m 250.21153,260.3124 6.12034,-3.60805"
         id="path43" /><path
         style="opacity:1;fill:#888dcd;fill-opacity:1;stroke:none;stroke-width:2;stroke-linecap:round;stroke-linejoin:round;stroke-miterlimit:51.4;stroke-dasharray:none;stroke-opacity:1"
         d="m 259.16866,276.91067 5.89296,-3.82285"
         id="path44" /><path
         style="opacity:1;fill:#888dcd;fill-opacity:1;stroke:none;stroke-width:6;stroke-linecap:round;stroke-linejoin:round;stroke-miterlimit:51.4;stroke-dasharray:none;stroke-opacity:1"
         d="m 203.62973,179.67486 1.08475,6.77572 2.52101,6.48751 12.77493,1.55237 5.48611,-10.54626 -3.43812,-4.18536 -8.75627,-2.67116 z"
         id="path65" /><path
         style="opacity:1;fill:#888dcd;fill-opacity:1;stroke:none;stroke-width:2;stroke-linecap:round;stroke-linejoin:round;stroke-miterlimit:51.4;stroke-dasharray:none;stroke-opacity:1"
         d="m 205.56062,187.1125 -1.33292,10.12447 11.64464,0.86256 -0.0585,-8.30663 z"
         id="path45" /><path
         style="opacity:1;fill:#888dcd;fill-opacity:1;stroke:none;stroke-width:2;stroke-linecap:round;stroke-linejoin:round;stroke-miterlimit:51.4;stroke-dasharray:none;stroke-opacity:1"
         d="m 216.27416,189.95216 3.60769,-7.91914 9.17433,3.61665 -5.53528,9.8586 z"
         id="path46"
         inkscape:label="path46" /><path
         style="opacity:1;fill:#888dcd;fill-opacity:1;stroke:none;stroke-width:2;stroke-linecap:round;stroke-linejoin:round;stroke-miterlimit:51.4;stroke-dasharray:none;stroke-opacity:1"
         d="m 212.27795,216.55116 -0.10561,6.12972 c 0,0 7.14638,1.21485 8.78862,0.86666 1.64225,-0.34819 10.78327,-2.34322 10.78327,-2.34322 l -10.96884,-19.49881 0.50698,-2.01952 1.5707,0.56629 12.17374,18.07734 c 0,0 5.25772,-4.57357 6.29082,-6.21046 1.0331,-1.63689 4.58122,-6.91335 4.58122,-6.91335 l -7.01704,-3.84352 -14.43165,-8.09261 -11.61089,5.19151 z"
         id="path47" /><path
         style="opacity:1;fill:#888dcd;fill-opacity:1;stroke:none;stroke-width:2;stroke-linecap:round;stroke-linejoin:round;stroke-miterlimit:51.4;stroke-dasharray:none;stroke-opacity:1"
         d="m 218.53477,193.03127 c 0,0 -9.71758,3.44565 -10.50355,3.72524 -0.78597,0.2796 -7.49504,3.25175 -7.73305,4.06361 -0.23802,0.81185 -0.17769,3.38422 0.16223,3.98184 0.33992,0.59762 5.81768,8.39603 6.74678,9.34879 0.92911,0.95277 3.07945,2.51475 4.0123,2.70356 0.93285,0.18882 1.66435,0.23486 2.34256,-0.13376 0.6782,-0.36862 4.50637,-5.60872 5.34938,-7.15465 0.84301,-1.54593 3.29579,-8.22864 3.29579,-8.22864 l 8.13786,1.9087 c 0,0 6.03251,0.45061 8.07532,0.29869 2.04281,-0.15193 2.53102,-0.23989 3.15148,-0.51504 0.62046,-0.27515 0.59914,-1.23564 0.59914,-1.23564 0,0 -0.34203,-6.87189 -0.82146,-8.36253 -0.47943,-1.49064 -2.872,-7.98676 -3.58675,-9.04413 -0.71475,-1.05736 -1.56948,-1.865 -2.01529,-2.02138 -0.44581,-0.15637 -2.31784,0.36616 -2.80676,0.47885 -0.48891,0.11268 -7.11071,3.959 -8.24234,4.76371 -1.13163,0.80471 -6.16364,5.42278 -6.16364,5.42278 z"
         id="path5"
         inkscape:label="bow" /><path
         style="opacity:1;fill:#888dcd;fill-opacity:1;stroke:none;stroke-width:2.55343;stroke-linecap:round;stroke-linejoin:round;stroke-miterlimit:51.4;stroke-dasharray:none;stroke-opacity:1"
         d="m 205.10583,188.36585 -1.03936,-3.75594"
         id="path48" /><path
         style="opacity:1;fill:#888dcd;fill-opacity:1;stroke:none;stroke-width:2;stroke-linecap:round;stroke-linejoin:round;stroke-miterlimit:51.4;stroke-dasharray:none;stroke-opacity:1"
         d="m 223.53578,180.89814 1.42251,2.17526"
         id="path49" /><path
         style="opacity:1;fill:#888dcd;fill-opacity:1;stroke:none;stroke-width:2;stroke-linecap:round;stroke-linejoin:round;stroke-miterlimit:51.4;stroke-dasharray:none;stroke-opacity:1"
         d="m 189.53556,180.66075 c 0,0 4.59252,2.35918 9.20348,2.66894 4.61095,0.30976 21.08834,-0.13506 21.08834,-0.13506 0,0 9.26201,-6.40547 10.94036,-7.51453 1.67835,-1.10906 7.83674,-6.38564 7.83674,-6.38564 l -0.0917,-2.60994 0.40518,-5.7463 0.0673,-17.72934 -14.94701,-26.8729 -10.13184,-0.83802 6.20402,19.92857 -13.76603,-20.03229 -7.07569,-4.93777 -3.18522,24.9484 -5.38444,-19.67643 -9.57593,17.90911 -3.20689,14.19703 -2.54494,-23.96794 -5.16549,2.85886 0.26782,23.0829 6.26856,22.29605 z"
         id="path50" /><rect
         style="opacity:1;fill:#888dcd;fill-opacity:1;stroke:none;stroke-width:3.05032;stroke-linecap:round;stroke-linejoin:round;stroke-miterlimit:51.4;stroke-dasharray:none;stroke-opacity:1"
         id="rect72"
         width="17.868059"
         height="8.4106178"
         x="138.02745"
         y="211.90572"
         ry="4.2053089"
         transform="rotate(-14.02695)" /><path
         style="opacity:1;fill:#888dcd;fill-opacity:1;stroke:none;stroke-width:2;stroke-linecap:round;stroke-linejoin:round;stroke-miterlimit:51.4;stroke-dasharray:none;stroke-opacity:1"
         d="m 155.94144,168.6588 c -1.16714,0.71771 -2.05459,2.26433 -2.52282,3.67429 -0.65642,1.97663 -0.99283,4.29869 -0.24723,6.24345 0.74011,1.93043 2.50368,3.46783 4.32563,4.44501 1.70882,0.91649 3.88334,1.7029 5.71737,1.07333 2.84708,-0.97732 5.70481,-5.5656 5.98092,-6.76594 0.27611,-1.20033 1.11967,-3.91583 0.68775,-4.59897 -0.43192,-0.68314 -3.17922,-4.77736 -3.79091,-5.52596 -0.6117,-0.74859 -10.15075,1.45479 -10.15075,1.45479 z"
         id="path54"
         sodipodi:nodetypes="caaaassscc" /><rect
         style="opacity:1;fill:#888dcd;fill-opacity:1;stroke:none;stroke-width:2.71545;stroke-linecap:round;stroke-linejoin:round;stroke-miterlimit:51.4;stroke-dasharray:none;stroke-opacity:1"
         id="rect73"
         width="15.906478"
         height="7.487288"
         x="205.09583"
         y="187.39386"
         ry="3.743644"
         transform="rotate(-6.2367693)" /><path
         style="opacity:1;fill:#888dcd;fill-opacity:1;stroke:none;stroke-width:2;stroke-linecap:round;stroke-linejoin:round;stroke-miterlimit:51.4;stroke-dasharray:none;stroke-opacity:1"
         d="m 238.54041,167.77514 c 0,0 6.04591,-5.46695 7.38638,-7.06002 1.34046,-1.59307 5.53471,-8.8785 5.94266,-10.22819 0.40795,-1.34968 2.2822,-6.97889 1.97244,-10.75874 -0.30977,-3.77986 -2.0402,-15.93669 -2.0402,-15.93669 0,0 2.25639,8.67292 2.53619,9.94885 0.2798,1.27593 2.10796,10.0521 2.10796,11.17222 0,1.12013 0.0996,3.98682 0.0996,3.98682 0,0 1.14963,-1.84429 1.71569,-3.61298 0.56605,-1.76869 1.77756,-6.80151 1.71015,-10.27198 -0.13596,-6.99925 -1.50685,-14.12666 -4.25095,-20.56699 -3.79139,-8.89829 -9.09125,-17.615057 -16.42622,-23.920008 -7.01415,-6.029185 -15.95043,-10.060543 -24.97329,-12.094601 -8.3721,-1.887354 -17.30953,-1.381074 -25.74586,0.194524 -9.02282,1.685133 -18.00056,4.832852 -25.75461,9.74464 -6.58561,4.171645 -12.65176,9.657994 -16.8291,16.239995 -3.16061,4.98 -4.81161,10.92117 -5.69743,16.75257 -1.01633,6.6906 -0.62818,13.62827 0.53425,20.29504 1.17666,6.74836 2.66023,13.80364 6.44372,19.51417 1.55509,2.34714 4.51462,4.39523 6.35338,5.56606 1.83876,1.17083 5.53794,2.54402 6.32295,2.65419 0.78501,0.11017 0.91362,0.94589 2.23933,2.18356 1.32572,1.23767 2.7699,1.59906 2.7699,1.59906 0,0 -0.29271,-1.78114 -0.85692,-3.06721 -0.56421,-1.28607 -2.37624,-8.92921 -2.48595,-9.66904 -0.1097,-0.73984 -0.44897,-5.14936 -0.57619,-6.718 -0.12723,-1.56864 1.02102,3.88219 1.92588,6.25059 0.90486,2.36839 2.4168,6.31742 3.77754,8.63235 1.36075,2.31492 3.45672,4.22559 4.9175,5.03688 1.46077,0.81128 7.78741,5.61769 10.31991,6.21094 2.5325,0.59325 5.4287,0.97538 6.64378,0.97538 1.21509,0 1.61566,-0.18761 1.61566,-0.18761 0,0 -0.7108,0.45497 -2.01946,-1.37088 -1.30865,-1.82586 -3.52955,-3.117 -5.83019,-6.54237 -2.30063,-3.42538 -7.48364,-16.42899 -7.79801,-19.40769 -0.31438,-2.97871 -1.79958,-10.55501 -1.94478,-13.5775 -0.1452,-3.0225 -0.0659,-8.6614 0.002,-9.89077 0.0678,-1.22937 1.39716,7.87776 1.55435,11.62212 0.15719,3.74436 2.06232,12.88607 2.60026,14.12789 0.53794,1.24182 1.8465,-4.83095 2.81322,-7.2292 3.33779,-8.28045 10.31208,-24.71884 10.31208,-24.71884 0,0 0.50798,10.08501 2.25916,14.73542 1.38028,3.66544 6.32249,9.90414 6.32249,9.90414 0,0 0.73615,-9.72575 1.34645,-13.28572 0.61031,-3.55997 3.71256,-15.37155 3.71256,-15.37155 0,0 5.69267,6.09712 8.2078,9.41506 3.47453,4.58357 9.45977,14.43073 9.45977,14.43073 0,0 1.45807,-7.97228 1.00397,-11.94064 -0.44092,-3.85314 -3.2645,-10.10004 -3.56873,-11.07404 -0.30424,-0.974 -1.2409,-2.44492 -1.2409,-2.44492 0,0 7.40878,8.96406 10.9293,13.58995 2.66692,3.50427 7.71643,10.72325 7.71643,10.72325 0,0 -0.59464,-12.93447 -1.46861,-14.57271 -0.87398,-1.63824 -3.97991,-11.15379 -3.97991,-11.15379 0,0 6.95302,17.10225 8.3028,26.14643 0.98606,6.60713 -0.22406,18.27236 -0.22406,20.03967 0,1.76731 -0.16594,4.98018 -0.16594,4.98018 z"
         id="path51"
         sodipodi:nodetypes="cssscsscsaaaaaaaaaassscsssssssscsssscssacacscacascacscascc" /><path
         style="opacity:1;fill:#888dcd;fill-opacity:1;stroke:none;stroke-width:2;stroke-linecap:round;stroke-linejoin:round;stroke-miterlimit:51.4;stroke-dasharray:none;stroke-opacity:1"
         d="m 151.3669,119.43822 c -0.59464,1.84245 -2.61278,8.98239 -2.67632,13.60332 -0.0707,5.14449 1.11672,10.283 2.562,15.22081 1.74378,5.95764 6.4617,16.11 7.2988,17.13287 0.8371,1.02286 2.38315,4.13893 2.38315,4.13893"
         id="path52"
         sodipodi:nodetypes="caasc" /><path
         style="opacity:1;fill:#888dcd;fill-opacity:1;stroke:none;stroke-width:2;stroke-linecap:round;stroke-linejoin:round;stroke-miterlimit:51.4;stroke-dasharray:none;stroke-opacity:1"
         d="m 170.93178,175.09883 c -1.09293,0.73661 -3.74226,2.94049 -4.76123,5.00554 -1.05779,2.14373 -1.4843,4.72189 -1.1169,7.08399 0.30045,1.93166 1.14606,3.96913 2.62976,5.24201 2.01943,1.7325 4.9367,2.53737 7.59612,2.45276 2.19606,-0.0699 4.44615,-1.00999 6.13119,-2.42003 1.78891,-1.49696 3.13829,-3.68454 3.6766,-5.95419 0.27291,-1.15065 -0.0349,-2.38398 -0.30976,-3.53416 -0.20919,-0.87538 -1.00581,-2.50576 -1.00581,-2.50576 l -7.81922,-3.666 -3.89279,-2.8206 z"
         id="path53"
         sodipodi:nodetypes="caaaaaaacccc" /><path
         style="opacity:1;fill:#888dcd;fill-opacity:1;stroke:none;stroke-width:2;stroke-linecap:round;stroke-linejoin:round;stroke-miterlimit:51.4;stroke-dasharray:none;stroke-opacity:1"
         d="m 196.78642,183.62655 c -0.31437,2.35226 -1.01826,6.81663 -1.56449,7.31032 -0.54623,0.49368 4.6317,-1.72629 5.07099,-3.10962 0.4393,-1.38333 1.45202,-3.76694 1.45202,-3.76694"
         id="path57" /><path
         style="opacity:1;fill:#888dcd;fill-opacity:1;stroke:none;stroke-width:2;stroke-linecap:round;stroke-linejoin:round;stroke-miterlimit:51.4;stroke-dasharray:none;stroke-opacity:1"
         d="m 151.67274,113.09354 -1.5593,-41.554751 27.90506,20.877734"
         id="path66"
         sodipodi:nodetypes="ccc" /><path
         style="opacity:1;fill:#888dcd;fill-opacity:1;stroke:none;stroke-width:2;stroke-linecap:round;stroke-linejoin:round;stroke-miterlimit:51.4;stroke-dasharray:none;stroke-opacity:1"
         d="M 199.60526,87.259685 218.34421,58.344674 231.4238,91.788679"
         id="path67" /><path
         sodipodi:type="star"
         style="opacity:1;fill:#888dcd;fill-opacity:1;stroke:none;stroke-width:2;stroke-linecap:round;stroke-linejoin:round;stroke-miterlimit:51.4;stroke-dasharray:none;stroke-opacity:1"
         id="path69"
         inkscape:flatsided="false"
         sodipodi:sides="4"
         sodipodi:cx="119.25287"
         sodipodi:cy="108.52415"
         sodipodi:r1="8.6345053"
         sodipodi:r2="3.7381659"
         sodipodi:arg1="1.0471976"
         sodipodi:arg2="1.8325957"
         inkscape:rounded="0.15"
         inkscape:randomized="0"
         d="m 123.57012,116.00185 c -0.85066,0.49113 -4.33597,-3.61268 -5.28476,-3.86691 -0.94879,-0.25423 -6.01906,1.55712 -6.51019,0.70646 -0.49113,-0.85066 3.61268,-4.33597 3.86691,-5.28476 0.25423,-0.94879 -1.55713,-6.01906 -0.70646,-6.51019 0.85066,-0.49113 4.33597,3.61268 5.28476,3.86691 0.94879,0.25422 6.01906,-1.55713 6.51019,-0.70647 0.49113,0.85067 -3.61268,4.33597 -3.86691,5.28477 -0.25423,0.94879 1.55712,6.01906 0.70646,6.51019 z"
         transform="matrix(0.67568319,0,0,0.67568319,166.38599,66.00003)" /><path
         sodipodi:type="star"
         style="opacity:1;fill:#888dcd;fill-opacity:1;stroke:none;stroke-width:2;stroke-linecap:round;stroke-linejoin:round;stroke-miterlimit:51.4;stroke-dasharray:none;stroke-opacity:1"
         id="path70"
         inkscape:flatsided="false"
         sodipodi:sides="5"
         sodipodi:cx="103.18129"
         sodipodi:cy="86.75563"
         sodipodi:r1="15.299182"
         sodipodi:r2="6.6235271"
         sodipodi:arg1="1.8325957"
         sodipodi:arg2="2.4609142"
         inkscape:rounded="0.09"
         inkscape:randomized="0"
         d="M 99.22157,101.53351 C 98.293485,101.28483 98.638509,91.670652 98.033843,90.923951 97.429176,90.17725 87.95336,88.515836 87.903075,87.556328 c -0.05029,-0.959508 9.199955,-3.602313 9.723257,-4.408129 0.523303,-0.805815 -0.824786,-10.331256 0.07222,-10.675585 0.897007,-0.344329 6.268947,7.636501 7.197027,7.885181 0.92809,0.248679 9.57074,-3.976953 10.17541,-3.230252 0.60466,0.746701 -5.32554,8.321931 -5.27525,9.281439 0.0503,0.959507 6.73983,7.873365 6.21652,8.67918 -0.5233,0.805815 -9.5603,-2.493265 -10.45731,-2.148936 -0.89701,0.344328 -5.40529,8.842964 -6.33338,8.594284 z"
         transform="matrix(0.58515881,0.3378416,-0.3378416,0.58515881,206.22795,43.547676)" /><g
         id="g72"
         transform="rotate(-15.232091,211.56361,173.8781)"
         style="fill:#888dcd;fill-opacity:1;stroke:none"><path
           id="path71"
           style="opacity:1;fill:#888dcd;fill-opacity:1;stroke:none;stroke-width:2;stroke-linecap:round;stroke-linejoin:round;stroke-miterlimit:51.4"
           d="m 214.04607,176.18599 c 0,1.02369 -0.60187,1.95171 -1.53656,2.3692 -0.93469,0.41749 -2.02748,0.24642 -2.78987,-0.43674 -0.76239,-0.68316 -1.05187,-1.75072 -0.73902,-2.72544"
           sodipodi:nodetypes="cssc" /><path
           id="path72"
           style="opacity:1;fill:#888dcd;fill-opacity:1;stroke:none;stroke-width:2;stroke-linecap:round;stroke-linejoin:round;stroke-miterlimit:51.4"
           d="m 214.05733,176.2366 c 0,1.02369 0.60187,1.95171 1.53656,2.3692 0.93469,0.41749 2.02748,0.24642 2.78987,-0.43674 0.76239,-0.68316 1.05187,-1.75072 0.73902,-2.72544"
           sodipodi:nodetypes="cssc" /></g><path
         style="opacity:1;fill:#888dcd;fill-opacity:1;stroke:none;stroke-width:2;stroke-linecap:round;stroke-linejoin:round;stroke-miterlimit:51.4;stroke-dasharray:none;stroke-opacity:1"
         d="m 190.56295,172.92404 -0.77489,4.48289"
         id="path73" /><path
         style="opacity:1;fill:#888dcd;fill-opacity:1;stroke:none;stroke-width:2;stroke-linecap:round;stroke-linejoin:round;stroke-miterlimit:51.4;stroke-dasharray:none;stroke-opacity:1"
         d="m 194.90778,171.8892 -0.77489,4.48289"
         id="path74" /><path
         style="opacity:1;fill:#888dcd;fill-opacity:1;stroke:none;stroke-width:2;stroke-linecap:round;stroke-linejoin:round;stroke-miterlimit:51.4;stroke-dasharray:none;stroke-opacity:1"
         d="m 199.04516,171.1541 -0.77489,4.48289"
         id="path75" /><path
         style="opacity:1;fill:#888dcd;fill-opacity:1;stroke:none;stroke-width:2;stroke-linecap:round;stroke-linejoin:round;stroke-miterlimit:51.4;stroke-dasharray:none;stroke-opacity:1"
         d="m 229.13204,165.53562 -1.33044,3.11287"
         id="path76" /><path
         style="opacity:1;fill:#888dcd;fill-opacity:1;stroke:none;stroke-width:2;stroke-linecap:round;stroke-linejoin:round;stroke-miterlimit:51.4;stroke-dasharray:none;stroke-opacity:1"
         d="m 233.16059,165.20382 -1.33044,3.11287"
         id="path77" /><path
         style="opacity:1;fill:#888dcd;fill-opacity:1;stroke:none;stroke-width:2;stroke-linecap:round;stroke-linejoin:round;stroke-miterlimit:51.4;stroke-dasharray:none;stroke-opacity:1"
         d="m 236.91906,164.8866 -1.33044,3.11287"
         id="path78" /><path
         style="opacity:1;fill:#888dcd;fill-opacity:1;stroke:none;stroke-width:2;stroke-linecap:round;stroke-linejoin:round;stroke-miterlimit:51.4;stroke-dasharray:none;stroke-opacity:1"
         d="m 190.74282,158.19428 4.91443,0.0783 4.78963,-1.27226"
         id="path59" /><path
         style="opacity:1;fill:#888dcd;fill-opacity:1;stroke:none;stroke-width:2;stroke-linecap:round;stroke-linejoin:round;stroke-miterlimit:51.4;stroke-dasharray:none;stroke-opacity:1"
         d="m 220.72646,153.34525 3.25458,-0.32189 5.43431,-1.80203"
         id="path60" /><path
         style="opacity:1;fill:#888dcd;fill-opacity:1;stroke:none;stroke-width:2;stroke-linecap:round;stroke-linejoin:round;stroke-miterlimit:51.4;stroke-dasharray:none;stroke-opacity:1"
         d="m 178.61606,140.34911 6.09908,-2.7377 7.72202,-2.11762"
         id="path61" /><path
         style="opacity:1;fill:#888dcd;fill-opacity:1;stroke:none;stroke-width:2;stroke-linecap:round;stroke-linejoin:round;stroke-miterlimit:51.4;stroke-dasharray:none;stroke-opacity:1"
         d="m 215.01736,131.98811 8.493,-1.76784 5.7481,-0.26219"
         id="path62" /><path
         style="opacity:1;fill:#888dcd;fill-opacity:1;stroke:none;stroke-width:6;stroke-linecap:round;stroke-linejoin:round;stroke-miterlimit:51.4;stroke-dasharray:none;stroke-opacity:1"
         d="m 177.34449,167.77085 25.20187,-5.2525"
         id="path63" /><path
         style="opacity:1;fill:#888dcd;fill-opacity:1;stroke:none;stroke-width:6;stroke-linecap:round;stroke-linejoin:round;stroke-miterlimit:51.4;stroke-dasharray:none;stroke-opacity:1"
         d="m 221.14661,159.90955 19.64515,-4.87897"
         id="path64" /></g><g
       id="g1"><path
         style="fill:#f7e1f2;fill-opacity:1;stroke:#4d2a3c;stroke-width:2;stroke-linecap:round;stroke-linejoin:round;stroke-miterlimit:51.4;stroke-dasharray:none;stroke-opacity:1"
         d="m 240.61047,315.31549 9.45102,58.7934 9.7619,73.53615 5.64466,2.92831 c 0,0 5.75592,1.69834 8.61866,0.36 2.86275,-1.33834 5.58092,-3.03259 5.58092,-3.03259 l -7.54258,-73.51436 -6.53362,-63.18826 -4.78886,1.69318 -0.31392,-2.66797 z"
         id="path79" /><path
         style="fill:#f7e1f2;fill-opacity:1;stroke:#4d2a3c;stroke-width:2;stroke-linecap:round;stroke-linejoin:round;stroke-miterlimit:51.4;stroke-dasharray:none;stroke-opacity:1"
         d="m 295.14273,293.62996 50.92446,38.71064 59.80916,44.8518 2.35113,-0.0505 7.06236,-6.65888 c 0,0 0.88012,-4.36421 0.94399,-5.78485 0.0639,-1.42064 -0.25736,-2.23534 -0.25736,-2.23534 l -101.50476,-85.07231 -11.04047,6.4055 1.10561,2.17214 z"
         id="path80" /><path
         style="fill:#f5bbe8;fill-opacity:1;stroke:#4d2a3c;stroke-width:2;stroke-linecap:round;stroke-linejoin:round;stroke-miterlimit:51.4;stroke-dasharray:none;stroke-opacity:1"
         d="m 252.02198,158.36553 4.49215,2.91264 5.21777,8.55155 -5.7425,8.83037 -8.83424,-14.03459 -0.39597,-9.26506 z"
         id="path81" /><path
         style="fill:#f4e3d7;fill-opacity:1;stroke:#4d2a3c;stroke-width:2;stroke-linecap:round;stroke-linejoin:round;stroke-miterlimit:51.4;stroke-dasharray:none;stroke-opacity:1"
         d="m 249.09342,147.7346 c 1.75562,-1.98785 2.6526,4.02764 2.76805,6.32664 0.11467,2.28359 -0.49107,4.90958 -2.10612,6.52808 -0.82417,0.82593 -2.1802,1.2859 -3.32903,1.08187 -2.37567,-0.42191 -5.69282,-4.47083 -5.69282,-4.47083 z"
         id="path82"
         sodipodi:nodetypes="saaacs" /><path
         style="fill:#f4e3d7;fill-opacity:1;stroke:#4d2a3c;stroke-width:2;stroke-linecap:round;stroke-linejoin:round;stroke-miterlimit:51.4;stroke-dasharray:none;stroke-opacity:1"
         d="m 234.87565,164.22397 c 0.23416,1.2787 0.71242,1.95536 1.48981,2.56753 1.90262,1.49825 4.61512,2.66178 6.96369,2.07109 1.94772,-0.48987 3.98636,-2.4334 4.27538,-4.24542 0.28902,-1.81203 -0.0825,-3.49498 -0.86384,-4.82162 -0.78132,-1.32663 -2.43616,-2.96257 -3.44335,-3.26772 -1.00719,-0.30516 -6.42114,1.27685 -6.42114,1.27685 z"
         id="path83"
         sodipodi:nodetypes="casssscc" /><path
         id="path84"
         style="fill:#f5bbe8;fill-opacity:1;stroke:#4d2a3c;stroke-width:2;stroke-linecap:round;stroke-linejoin:round;stroke-miterlimit:51.4;stroke-dasharray:none;stroke-opacity:1"
         inkscape:label="path58"
         d="m 153.54597,171.80673 c -2.0803,0.93621 -6.22371,2.94096 -7.92188,6.95312 -1.69816,4.01218 -1.60156,4.56446 -1.60156,4.56446 0,0 4.85175,-4.80263 5.92578,-5.5586 1.07403,-0.75597 4.81446,-3.02148 4.81445,-3.02148 0,0 -4.43554,5.66129 -4.43554,10.21093 0,4.54965 0.93166,8.22986 2.55469,11.34961 1.62302,3.11976 5.06054,6.88477 5.06054,6.88477 l 1.42774,0.83398 c 0,0 -0.68032,-4.90163 -1.26758,-7.06445 -0.58726,-2.16281 -2.12891,-8.51786 -2.12891,-10.88672 0,-2.36886 1.34961,-5.23633 1.34961,-5.23633 0,0 -0.61989,5.94466 0.0918,8.92383 0.71171,2.97917 3.22354,8.04029 5.05078,9.75781 1.82723,1.71753 5.17935,5.24266 8.05664,6.33789 2.8773,1.09523 2.01291,1.07774 5.25391,1.69727 3.24098,0.61952 6.69531,1.81055 6.69531,1.81055 0,0 -2.54349,-6.42099 -3.58203,-8.91016 -1.03854,-2.48917 -1.98288,-7.08671 -2.28711,-8.57422 -0.30423,-1.48751 -0.48438,-5.53906 -0.48438,-5.53906 l -8.06836,-5.19336 c 0.0556,-1.55857 -0.0332,-3.26201 -0.0332,-4.42187 0,-2.63759 -3.04101,-2.76758 -3.04101,-2.76758 -2.09441,0.76781 -2.93919,-6.11721 -3.87241,-5.32767 z"
         sodipodi:nodetypes="cscscssccsscsssscssccsccc" /><path
         style="fill:#f4d0d7;fill-opacity:1;stroke:#4d2a3c;stroke-width:2;stroke-linecap:round;stroke-linejoin:round;stroke-miterlimit:51.4;stroke-dasharray:none;stroke-opacity:1"
         d="m 213.06279,238.92938 c 0,0 -20.91074,18.5263 -27.44355,22.17041 -6.5328,3.6441 -52.51129,27.34027 -52.51129,27.34027 l -1.01976,5.17188 -2.37235,5.92786 -30.549723,-7.2091 c 0,0 0.335414,-7.37969 0.712251,-9.32457 0.376842,-1.94489 4.106382,-12.53373 4.106382,-12.53373 l 3.9007,-4.57584 48.95003,-43.28712 46.27535,-37.5425 35.10083,-17.33798 c 0,0 19.81359,-6.15136 25.75525,-7.64577 5.94167,-1.4944 83.15422,-22.91315 83.15422,-22.91315 0,0 3.36766,-0.72578 7.04254,-0.76864 3.67489,-0.0429 9.95686,1.77344 12.68677,2.69684 2.72991,0.92339 6.94762,2.22132 7.8247,3.47984 0.87708,1.25853 0.91476,2.26017 0.75971,2.97644 -0.15505,0.71628 -9.56649,26.72929 -9.56649,26.72929 l -11.0888,-2.97903 c 0,0 -33.42145,18.84043 -36.54719,20.44674 -3.12574,1.6063 -15.77424,8.19146 -20.91534,9.7178 -5.1411,1.52634 -23.19794,7.99039 -23.19794,7.99039 l -7.48296,2.58493"
         id="path85" /><path
         style="fill:#f4d0d7;fill-opacity:1;stroke:#4d2a3c;stroke-width:2;stroke-linecap:round;stroke-linejoin:round;stroke-miterlimit:51.4;stroke-dasharray:none;stroke-opacity:1"
         d="m 195.67295,201.80483 34.33981,74.16844 3.78378,18.34974 3.28547,2.30512 2.95407,18.75279 20.18993,-4.86183 0.13923,2.77738 15.38346,-7.49102 1.25149,1.73189 17.27684,-12.0983 -0.46596,-1.33724 10.74535,-8.12078 -1.02892,-2.4603 11.48236,-6.24553 -11.43687,-11.05494 0.036,-7.04384 -13.67572,-14.26615 -38.86541,-57.72016"
         id="path86"
         inkscape:label="path3" /><path
         style="fill:#da5f77;fill-opacity:1;stroke:#4d2a3c;stroke-width:2;stroke-linecap:round;stroke-linejoin:round;stroke-miterlimit:51.4;stroke-dasharray:none;stroke-opacity:1"
         d="m 112.67823,269.93881 19.99604,14.53046"
         id="path87" /><path
         style="fill:none;fill-opacity:1;stroke:#4d2a3c;stroke-width:2;stroke-linecap:round;stroke-linejoin:round;stroke-miterlimit:51.4;stroke-dasharray:none;stroke-opacity:1"
         d="m 105.18978,276.48661 c 0,0 6.00356,0.10029 10.83713,1.70398 4.83357,1.60368 11.9296,5.00139 11.9296,5.00139"
         id="path88" /><path
         style="fill:none;fill-opacity:1;stroke:#4d2a3c;stroke-width:2;stroke-linecap:round;stroke-linejoin:round;stroke-miterlimit:51.4;stroke-dasharray:none;stroke-opacity:1"
         d="m 117.03009,278.97743 -3.27315,13.20289"
         id="path89" /><path
         style="fill:none;fill-opacity:1;stroke:#4d2a3c;stroke-width:2;stroke-linecap:round;stroke-linejoin:round;stroke-miterlimit:51.4;stroke-dasharray:none;stroke-opacity:1"
         d="M 105.8248,276.74297 104.08806,290.279"
         id="path90" /><path
         style="fill:none;fill-opacity:1;stroke:#4d2a3c;stroke-width:2;stroke-linecap:round;stroke-linejoin:round;stroke-miterlimit:51.4;stroke-dasharray:none;stroke-opacity:1"
         d="m 127.09964,283.257 -3.16885,10.49624"
         id="path91"
         inkscape:label="path10" /><path
         style="fill:none;fill-opacity:1;stroke:#4d2a3c;stroke-width:2;stroke-linecap:round;stroke-linejoin:round;stroke-miterlimit:51.4;stroke-dasharray:none;stroke-opacity:1"
         d="m 350.26758,142.87056 1.63691,24.43772"
         id="path92" /><path
         style="fill:none;fill-opacity:1;stroke:#4d2a3c;stroke-width:2;stroke-linecap:round;stroke-linejoin:round;stroke-miterlimit:51.4;stroke-dasharray:none;stroke-opacity:1"
         d="m 352.13358,162.49405 c 0,0 1.98144,-9.76452 2.48647,-11.30173 0.50502,-1.53721 5.37467,-12.10444 5.37467,-12.10444"
         id="path93" /><path
         style="fill:none;fill-opacity:1;stroke:#4d2a3c;stroke-width:2;stroke-linecap:round;stroke-linejoin:round;stroke-miterlimit:51.4;stroke-dasharray:none;stroke-opacity:1"
         d="m 352.95613,160.96464 c 0,0 5.15006,2.11378 6.20081,2.34428 1.05075,0.2305 5.09119,1.33436 5.09119,1.33436"
         id="path94" /><path
         style="fill:none;fill-opacity:1;stroke:#4d2a3c;stroke-width:2;stroke-linecap:round;stroke-linejoin:round;stroke-miterlimit:51.4;stroke-dasharray:none;stroke-opacity:1"
         d="m 355.39716,151.20768 11.95406,4.23229"
         id="path95" /><path
         style="fill:none;fill-opacity:1;stroke:#4d2a3c;stroke-width:2;stroke-linecap:round;stroke-linejoin:round;stroke-miterlimit:51.4;stroke-dasharray:none;stroke-opacity:1"
         d="m 359.34213,141.21497 c 0,0 5.97402,2.41236 6.53203,2.88859 0.55801,0.47623 4.81053,2.78364 4.81053,2.78364"
         id="path96" /><path
         style="fill:none;fill-opacity:1;stroke:#4d2a3c;stroke-width:2;stroke-linecap:round;stroke-linejoin:round;stroke-miterlimit:51.4;stroke-dasharray:none;stroke-opacity:1"
         d="m 239.21866,306.78063 c 0,0 11.5027,-1.8899 13.508,-2.51293 2.00529,-0.62303 20.00471,-7.41896 23.03725,-9.55732 3.03254,-2.13835 21.31762,-13.87595 22.76484,-14.81995 1.44721,-0.944 0.51173,0.61578 1.50082,0.30426 0.98909,-0.31151 3.65966,-3.34405 4.94418,-4.20576 1.28453,-0.86171 3.6767,-4.07712 3.6767,-4.07712"
         id="path97" /><path
         style="fill:#73206d;fill-opacity:1;stroke:#4d2a3c;stroke-width:2;stroke-linecap:round;stroke-linejoin:round;stroke-miterlimit:51.4;stroke-dasharray:none;stroke-opacity:1"
         d="m 237.82104,306.9572 1.21243,9.06626 20.89231,-5.38932 0.14043,3.51041 15.79466,-7.92877 1.10071,1.49279 17.35245,-12.26573 -0.52407,-1.50783 10.85147,-7.88565 -1.049,-2.5428 11.60235,-6.25652 -6.09708,-5.78726 -3.53924,3.71733 -3.67818,3.80556 c 0,0 -1.06516,0.94002 -1.49528,0.97966 -0.43011,0.0396 -1.08405,-0.89702 -1.31384,-0.73707 -0.22978,0.15994 -23.46717,15.86971 -23.46717,15.86971 0,0 -12.76768,5.45358 -15.66417,6.22396 -2.89648,0.77039 -6.87963,2.81099 -10.11141,3.28088 -3.23179,0.46988 -12.00737,2.35439 -12.00737,2.35439 z"
         id="path98"
         inkscape:label="path17" /><path
         style="fill:#f9e5f3;fill-opacity:1;stroke:#4d2a3c;stroke-width:2;stroke-linecap:round;stroke-linejoin:round;stroke-miterlimit:51.4;stroke-dasharray:none;stroke-opacity:1"
         d="m 250.3917,374.95599 21.55436,-1.49717 5.48223,53.75666 -20.27296,1.82636 z"
         id="path99" /><path
         style="fill:#f9e5f3;fill-opacity:1;stroke:#4d2a3c;stroke-width:2;stroke-linecap:round;stroke-linejoin:round;stroke-miterlimit:51.4;stroke-dasharray:none;stroke-opacity:1"
         d="m 346.49478,332.50036 13.47451,-16.75847 40.62506,33.96746 -12.12295,14.42514 z"
         id="path100" /><path
         style="fill:#5a384f;fill-opacity:1;stroke:#4d2a3c;stroke-width:2;stroke-linecap:round;stroke-linejoin:round;stroke-miterlimit:51.4;stroke-dasharray:none;stroke-opacity:1"
         d="m 257.09931,430.37403 c 0,0 3.04365,-4.25836 5.41355,-5.21295 2.3699,-0.95459 5.6377,-1.71479 7.90613,-1.24397 2.26844,0.47083 3.77124,1.65138 4.80969,2.27672 1.03845,0.62535 2.31062,1.94748 2.31062,1.94748 l 1.95085,18.79251 -0.65253,1.44404 c 0,0 -2.46799,1.97259 -3.84345,2.40666 -1.37545,0.43406 -4.28813,1.02007 -5.70525,0.70636 -1.41713,-0.31371 -3.41275,-0.60205 -4.97327,-1.21058 -1.56052,-0.60852 -3.91049,-2.0184 -4.28347,-2.30079 -0.37298,-0.28239 -0.44805,-0.72344 -0.44805,-0.72344 z"
         id="path101" /><path
         style="fill:#5a384f;fill-opacity:1;stroke:#4d2a3c;stroke-width:2;stroke-linecap:round;stroke-linejoin:round;stroke-miterlimit:51.4;stroke-dasharray:none;stroke-opacity:1"
         d="m 257.6291,432.99904 19.9338,-2.60972"
         id="path102" /><path
         style="fill:#5a384f;fill-opacity:1;stroke:#4d2a3c;stroke-width:2;stroke-linecap:round;stroke-linejoin:round;stroke-miterlimit:51.4;stroke-dasharray:none;stroke-opacity:1"
         d="m 261.8917,432.46754 1.70237,3.61976 2.11955,1.42227 7.52556,-0.68639 1.84984,-1.79986 0.33775,-3.89194"
         id="path103" /><path
         style="fill:#5a384f;fill-opacity:1;stroke:#4d2a3c;stroke-width:2;stroke-linecap:round;stroke-linejoin:round;stroke-miterlimit:51.4;stroke-dasharray:none;stroke-opacity:1"
         d="m 389.66104,365.17562 c 0,0 -0.79977,-1.79853 -0.79977,-3.10574 0,-1.30721 0.73822,-3.96953 1.49725,-5.48177 0.75903,-1.51224 2.26545,-3.3448 3.3336,-3.80075 1.06815,-0.45596 3.14178,-1.84218 4.05235,-1.84218 0.91057,0 3.45179,-0.30912 3.83187,-0.20258 0.38007,0.10655 14.15075,11.63438 14.15075,11.63438 0,0 0.71449,1.04734 0.71449,1.93328 0,0.88595 -1.1935,6.16515 -1.1935,6.16515 l -6.50493,6.36928 -3.06299,0.19496 z"
         id="path104" /><path
         style="fill:#5a384f;fill-opacity:1;stroke:#4d2a3c;stroke-width:2;stroke-linecap:round;stroke-linejoin:round;stroke-miterlimit:51.4;stroke-dasharray:none;stroke-opacity:1"
         d="M 392.31451,366.93608 403.1331,352.34273"
         id="path105" /><path
         style="fill:#5a384f;fill-opacity:1;stroke:#4d2a3c;stroke-width:2;stroke-linecap:round;stroke-linejoin:round;stroke-miterlimit:51.4;stroke-dasharray:none;stroke-opacity:1"
         d="m 394.63378,364.94974 3.2696,1.85268 3.24185,-0.1268 3.34516,-4.61473 -0.52862,-3.91886 -2.25964,-3.27371"
         id="path106" /><path
         style="fill:#5a384f;fill-opacity:1;stroke:#4d2a3c;stroke-width:2;stroke-linecap:round;stroke-linejoin:round;stroke-miterlimit:51.4;stroke-dasharray:none;stroke-opacity:1"
         d="m 258.28359,302.14096 0.15163,6.22923"
         id="path107" /><path
         style="fill:#5a384f;fill-opacity:1;stroke:#4d2a3c;stroke-width:2;stroke-linecap:round;stroke-linejoin:round;stroke-miterlimit:51.4;stroke-dasharray:none;stroke-opacity:1"
         d="m 241.26403,306.59973 c 0.7847,4.30378 1.04773,5.90321 1.04773,5.90321"
         id="path108" /><path
         style="fill:#5a384f;fill-opacity:1;stroke:#4d2a3c;stroke-width:2;stroke-linecap:round;stroke-linejoin:round;stroke-miterlimit:51.4;stroke-dasharray:none;stroke-opacity:1"
         d="m 273.65164,296.16781 c 0.10446,0.34819 1.11758,5.80018 1.11758,5.80018"
         id="path109" /><path
         style="fill:#5a384f;fill-opacity:1;stroke:#4d2a3c;stroke-width:2;stroke-linecap:round;stroke-linejoin:round;stroke-miterlimit:51.4;stroke-dasharray:none;stroke-opacity:1"
         d="m 287.74283,287.36911 2.86466,5.31006"
         id="path110" /><path
         style="fill:#5a384f;fill-opacity:1;stroke:#4d2a3c;stroke-width:2;stroke-linecap:round;stroke-linejoin:round;stroke-miterlimit:51.4;stroke-dasharray:none;stroke-opacity:1"
         d="m 298.9375,279.84647 2.02461,3.81692"
         id="path111" /><path
         style="fill:#5a384f;fill-opacity:1;stroke:#4d2a3c;stroke-width:2;stroke-linecap:round;stroke-linejoin:round;stroke-miterlimit:51.4;stroke-dasharray:none;stroke-opacity:1"
         d="m 242.56958,295.91138 27.23129,-13.8215 7.2448,-3.56207 19.13723,-10.55204"
         id="path112" /><path
         style="fill:#5a384f;fill-opacity:1;stroke:#4d2a3c;stroke-width:2;stroke-linecap:round;stroke-linejoin:round;stroke-miterlimit:51.4;stroke-dasharray:none;stroke-opacity:1"
         d="m 246.6008,294.10684 3.12028,7.42328"
         id="path113" /><path
         style="fill:#5a384f;fill-opacity:1;stroke:#4d2a3c;stroke-width:2;stroke-linecap:round;stroke-linejoin:round;stroke-miterlimit:51.4;stroke-dasharray:none;stroke-opacity:1"
         d="m 258.09964,288.36358 4.48188,8.39399"
         id="path114" /><path
         style="fill:#5a384f;fill-opacity:1;stroke:#4d2a3c;stroke-width:2;stroke-linecap:round;stroke-linejoin:round;stroke-miterlimit:51.4;stroke-dasharray:none;stroke-opacity:1"
         d="m 271.23071,281.8339 4.13878,8.25443"
         id="path115" /><path
         style="fill:#5a384f;fill-opacity:1;stroke:#4d2a3c;stroke-width:2;stroke-linecap:round;stroke-linejoin:round;stroke-miterlimit:51.4;stroke-dasharray:none;stroke-opacity:1"
         d="m 283.88568,274.85087 3.72513,7.59907"
         id="path116" /><path
         style="fill:#5a384f;fill-opacity:1;stroke:#4d2a3c;stroke-width:2;stroke-linecap:round;stroke-linejoin:round;stroke-miterlimit:51.4;stroke-dasharray:none;stroke-opacity:1"
         d="m 294.95044,268.85125 3.77872,9.24788"
         id="path117" /><path
         style="fill:#5a384f;fill-opacity:1;stroke:#4d2a3c;stroke-width:2;stroke-linecap:round;stroke-linejoin:round;stroke-miterlimit:51.4;stroke-dasharray:none;stroke-opacity:1"
         d="m 234.27722,208.71557 -0.30079,5.3388"
         id="path118" /><path
         style="fill:#5a384f;fill-opacity:1;stroke:#4d2a3c;stroke-width:2;stroke-linecap:round;stroke-linejoin:round;stroke-miterlimit:51.4;stroke-dasharray:none;stroke-opacity:1"
         d="m 241.35163,203.90065 0.42847,15.90329"
         id="path119" /><path
         style="fill:none;fill-opacity:1;stroke:#4d2a3c;stroke-width:2;stroke-linecap:round;stroke-linejoin:round;stroke-miterlimit:51.4;stroke-dasharray:none;stroke-opacity:1"
         d="m 231.40072,212.19736 11.94703,9.569 23.84522,45.19099 5.8264,10.47879"
         id="path120" /><path
         style="fill:none;fill-opacity:1;stroke:#4d2a3c;stroke-width:2;stroke-linecap:round;stroke-linejoin:round;stroke-miterlimit:51.4;stroke-dasharray:none;stroke-opacity:1"
         d="m 221.25186,214.96046 14.56615,11.46314 28.95836,53.8579"
         id="path121" /><path
         style="fill:none;fill-opacity:1;stroke:#4d2a3c;stroke-width:2;stroke-linecap:round;stroke-linejoin:round;stroke-miterlimit:51.4;stroke-dasharray:none;stroke-opacity:1"
         d="m 233.06892,223.85589 4.02309,-5.90953"
         id="path122" /><path
         style="fill:none;fill-opacity:1;stroke:#4d2a3c;stroke-width:2;stroke-linecap:round;stroke-linejoin:round;stroke-miterlimit:51.4;stroke-dasharray:none;stroke-opacity:1"
         d="m 242.62906,238.43947 6.34086,-4.1862"
         id="path123" /><path
         style="fill:none;fill-opacity:1;stroke:#4d2a3c;stroke-width:2;stroke-linecap:round;stroke-linejoin:round;stroke-miterlimit:51.4;stroke-dasharray:none;stroke-opacity:1"
         d="m 249.77117,251.46483 6.12034,-3.60805"
         id="path124" /><path
         style="fill:none;fill-opacity:1;stroke:#4d2a3c;stroke-width:2;stroke-linecap:round;stroke-linejoin:round;stroke-miterlimit:51.4;stroke-dasharray:none;stroke-opacity:1"
         d="m 258.7283,268.0631 5.89296,-3.82285"
         id="path125" /><path
         style="fill:#f7e1f2;fill-opacity:1;stroke:none;stroke-width:6;stroke-linecap:round;stroke-linejoin:round;stroke-miterlimit:51.4;stroke-dasharray:none;stroke-opacity:1"
         d="m 203.18937,170.82729 1.08475,6.77572 2.52101,6.48751 12.77493,1.55237 5.48611,-10.54626 -3.43812,-4.18536 -8.75627,-2.67116 z"
         id="path126" /><path
         style="fill:#f8e8f1;fill-opacity:1;stroke:#4d2a3c;stroke-width:2;stroke-linecap:round;stroke-linejoin:round;stroke-miterlimit:51.4;stroke-dasharray:none;stroke-opacity:1"
         d="m 205.12026,178.26493 -1.33292,10.12447 11.64464,0.86256 -0.0585,-8.30663 z"
         id="path127" /><path
         style="fill:#f8e8f1;fill-opacity:1;stroke:#4d2a3c;stroke-width:2;stroke-linecap:round;stroke-linejoin:round;stroke-miterlimit:51.4;stroke-dasharray:none;stroke-opacity:1"
         d="m 215.8338,181.10459 3.60769,-7.91914 9.17433,3.61665 -5.53528,9.8586 z"
         id="path128"
         inkscape:label="path46" /><path
         style="fill:#dc5e7c;fill-opacity:1;stroke:#4d2a3c;stroke-width:2;stroke-linecap:round;stroke-linejoin:round;stroke-miterlimit:51.4;stroke-dasharray:none;stroke-opacity:1"
         d="m 211.83759,207.70359 -0.10561,6.12972 c 0,0 7.14638,1.21485 8.78862,0.86666 1.64225,-0.34819 10.78327,-2.34322 10.78327,-2.34322 l -10.96884,-19.49881 0.50698,-2.01952 1.5707,0.56629 12.17374,18.07734 c 0,0 5.25772,-4.57357 6.29082,-6.21046 1.0331,-1.63689 4.58122,-6.91335 4.58122,-6.91335 l -7.01704,-3.84352 -14.43165,-8.09261 -11.61089,5.19151 z"
         id="path129" /><path
         style="fill:#da5f77;fill-opacity:1;stroke:#4d2a3c;stroke-width:2;stroke-linecap:round;stroke-linejoin:round;stroke-miterlimit:51.4;stroke-dasharray:none;stroke-opacity:1"
         d="m 218.09441,184.1837 c 0,0 -9.71758,3.44565 -10.50355,3.72524 -0.78597,0.2796 -7.49504,3.25175 -7.73305,4.06361 -0.23802,0.81185 -0.17769,3.38422 0.16223,3.98184 0.33992,0.59762 5.81768,8.39603 6.74678,9.34879 0.92911,0.95277 3.07945,2.51475 4.0123,2.70356 0.93285,0.18882 1.66435,0.23486 2.34256,-0.13376 0.6782,-0.36862 4.50637,-5.60872 5.34938,-7.15465 0.84301,-1.54593 3.29579,-8.22864 3.29579,-8.22864 l 8.13786,1.9087 c 0,0 6.03251,0.45061 8.07532,0.29869 2.04281,-0.15193 2.53102,-0.23989 3.15148,-0.51504 0.62046,-0.27515 0.59914,-1.23564 0.59914,-1.23564 0,0 -0.34203,-6.87189 -0.82146,-8.36253 -0.47943,-1.49064 -2.872,-7.98676 -3.58675,-9.04413 -0.71475,-1.05736 -1.56948,-1.865 -2.01529,-2.02138 -0.44581,-0.15637 -2.31784,0.36616 -2.80676,0.47885 -0.48891,0.11268 -7.11071,3.959 -8.24234,4.76371 -1.13163,0.80471 -6.16364,5.42278 -6.16364,5.42278 z"
         id="path130"
         inkscape:label="bow" /><path
         style="fill:#dc5e7c;fill-opacity:1;stroke:#4d2a3c;stroke-width:2.55343;stroke-linecap:round;stroke-linejoin:round;stroke-miterlimit:51.4;stroke-dasharray:none;stroke-opacity:1"
         d="m 204.66547,179.51828 -1.03936,-3.75594"
         id="path131" /><path
         style="fill:#dc5e7c;fill-opacity:1;stroke:#4d2a3c;stroke-width:2;stroke-linecap:round;stroke-linejoin:round;stroke-miterlimit:51.4;stroke-dasharray:none;stroke-opacity:1"
         d="m 223.09542,172.05057 1.42251,2.17526"
         id="path132" /><path
         style="fill:#f7e1f2;fill-opacity:1;stroke:#4d2a3c;stroke-width:2;stroke-linecap:round;stroke-linejoin:round;stroke-miterlimit:51.4;stroke-dasharray:none;stroke-opacity:1"
         d="m 189.0952,171.81318 c 0,0 4.59252,2.35918 9.20348,2.66894 4.61095,0.30976 21.08834,-0.13506 21.08834,-0.13506 0,0 9.26201,-6.40547 10.94036,-7.51453 1.67835,-1.10906 7.83674,-6.38564 7.83674,-6.38564 l -0.0917,-2.60994 0.40518,-5.7463 0.0673,-17.72934 -14.94701,-26.8729 -10.13184,-0.83802 6.20402,19.92857 -13.76603,-20.03229 -7.07569,-4.93777 -3.18522,24.9484 -5.38444,-19.67643 -9.57593,17.90911 -3.20689,14.19703 -2.54494,-23.96794 -5.16549,2.85886 0.26782,23.0829 6.26856,22.29605 z"
         id="path133" /><rect
         style="fill:#eabdca;fill-opacity:1;stroke:none;stroke-width:3.05032;stroke-linecap:round;stroke-linejoin:round;stroke-miterlimit:51.4;stroke-dasharray:none;stroke-opacity:1"
         id="rect133"
         width="17.868059"
         height="8.4106178"
         x="139.74467"
         y="203.21523"
         ry="4.2053089"
         transform="rotate(-14.02695)" /><path
         style="fill:#f4e3d7;fill-opacity:1;stroke:#4d2a3c;stroke-width:2;stroke-linecap:round;stroke-linejoin:round;stroke-miterlimit:51.4;stroke-dasharray:none;stroke-opacity:1"
         d="m 155.50108,159.81123 c -1.16714,0.71771 -2.05459,2.26433 -2.52282,3.67429 -0.65642,1.97663 -0.99283,4.29869 -0.24723,6.24345 0.74011,1.93043 2.50368,3.46783 4.32563,4.44501 1.70882,0.91649 3.88334,1.7029 5.71737,1.07333 2.84708,-0.97732 5.70481,-5.5656 5.98092,-6.76594 0.27611,-1.20033 1.11967,-3.91583 0.68775,-4.59897 -0.43192,-0.68314 -3.17922,-4.77736 -3.79091,-5.52596 -0.6117,-0.74859 -10.15075,1.45479 -10.15075,1.45479 z"
         id="path134"
         sodipodi:nodetypes="caaaassscc" /><rect
         style="fill:#eabdca;fill-opacity:1;stroke:none;stroke-width:2.71545;stroke-linecap:round;stroke-linejoin:round;stroke-miterlimit:51.4;stroke-dasharray:none;stroke-opacity:1"
         id="rect134"
         width="15.906478"
         height="7.487288"
         x="197.78798"
         y="186.71445"
         ry="3.743644"
         transform="rotate(-8.502427)" /><path
         style="fill:#f5bbe8;fill-opacity:1;stroke:#4d2a3c;stroke-width:2;stroke-linecap:round;stroke-linejoin:round;stroke-miterlimit:51.4;stroke-dasharray:none;stroke-opacity:1"
         d="m 238.10005,158.92757 c 0,0 6.04591,-5.46695 7.38638,-7.06002 1.34046,-1.59307 5.53471,-8.8785 5.94266,-10.22819 0.40795,-1.34968 2.2822,-6.97889 1.97244,-10.75874 -0.30977,-3.77986 -2.0402,-15.93669 -2.0402,-15.93669 0,0 2.25639,8.67292 2.53619,9.94885 0.2798,1.27593 2.10796,10.0521 2.10796,11.17222 0,1.12013 0.0996,3.98682 0.0996,3.98682 0,0 1.14963,-1.84429 1.71569,-3.61298 0.56605,-1.76869 1.77756,-6.80151 1.71015,-10.27198 -0.13596,-6.99925 -1.50685,-14.12666 -4.25095,-20.56699 -3.79139,-8.898295 -9.09125,-17.615062 -16.42622,-23.920013 -7.01415,-6.029185 -15.95043,-10.060543 -24.97329,-12.094601 -8.3721,-1.887354 -17.30953,-1.381074 -25.74586,0.194524 -9.02282,1.685133 -18.00056,4.832852 -25.75461,9.74464 -6.58561,4.171645 -12.65176,9.657994 -16.8291,16.239995 -3.16061,4.980005 -4.81161,10.921175 -5.69743,16.752575 -1.01633,6.6906 -0.62818,13.62827 0.53425,20.29504 1.17666,6.74836 2.66023,13.80364 6.44372,19.51417 1.55509,2.34714 4.51462,4.39523 6.35338,5.56606 1.83876,1.17083 5.53794,2.54402 6.32295,2.65419 0.78501,0.11017 0.91362,0.94589 2.23933,2.18356 1.32572,1.23767 2.7699,1.59906 2.7699,1.59906 0,0 -0.29271,-1.78114 -0.85692,-3.06721 -0.56421,-1.28607 -2.37624,-8.92921 -2.48595,-9.66904 -0.1097,-0.73984 -0.44897,-5.14936 -0.57619,-6.718 -0.12723,-1.56864 1.02102,3.88219 1.92588,6.25059 0.90486,2.36839 2.4168,6.31742 3.77754,8.63235 1.36075,2.31492 3.45672,4.22559 4.9175,5.03688 1.46077,0.81128 7.78741,5.61769 10.31991,6.21094 2.5325,0.59325 5.4287,0.97538 6.64378,0.97538 1.21509,0 1.61566,-0.18761 1.61566,-0.18761 0,0 -0.7108,0.45497 -2.01946,-1.37088 -1.30865,-1.82586 -3.52955,-3.117 -5.83019,-6.54237 -2.30063,-3.42538 -7.48364,-16.42899 -7.79801,-19.40769 -0.31438,-2.97871 -1.79958,-10.55501 -1.94478,-13.5775 -0.1452,-3.0225 -0.0659,-8.6614 0.002,-9.89077 0.0678,-1.22937 1.39716,7.87776 1.55435,11.62212 0.15719,3.74436 2.06232,12.88607 2.60026,14.12789 0.53794,1.24182 1.8465,-4.83095 2.81322,-7.2292 3.33779,-8.28045 10.31208,-24.71884 10.31208,-24.71884 0,0 0.50798,10.08501 2.25916,14.73542 1.38028,3.66544 6.32249,9.90414 6.32249,9.90414 0,0 0.73615,-9.72575 1.34645,-13.28572 0.61031,-3.55997 3.71256,-15.37155 3.71256,-15.37155 0,0 5.69267,6.09712 8.2078,9.41506 3.47453,4.58357 9.45977,14.43073 9.45977,14.43073 0,0 1.45807,-7.97228 1.00397,-11.94064 -0.44092,-3.85314 -3.2645,-10.10004 -3.56873,-11.07404 -0.30424,-0.974 -1.2409,-2.44492 -1.2409,-2.44492 0,0 7.40878,8.96406 10.9293,13.58995 2.66692,3.50427 7.71643,10.72325 7.71643,10.72325 0,0 -0.59464,-12.93447 -1.46861,-14.57271 -0.87398,-1.63824 -3.97991,-11.15379 -3.97991,-11.15379 0,0 6.95302,17.10225 8.3028,26.14643 0.98606,6.60713 -0.22406,18.27236 -0.22406,20.03967 0,1.76731 -0.16594,4.98018 -0.16594,4.98018 z"
         id="path135"
         sodipodi:nodetypes="cssscsscsaaaaaaaaaassscsssssssscsssscssacacscacascacscascc" /><path
         style="fill:#f5bbe8;fill-opacity:1;stroke:#4d2a3c;stroke-width:2;stroke-linecap:round;stroke-linejoin:round;stroke-miterlimit:51.4;stroke-dasharray:none;stroke-opacity:1"
         d="m 150.92654,110.59065 c -0.59464,1.84245 -2.61278,8.98239 -2.67632,13.60332 -0.0707,5.14449 1.11672,10.283 2.562,15.22081 1.74378,5.95764 6.4617,16.11 7.2988,17.13287 0.8371,1.02286 2.38315,4.13893 2.38315,4.13893"
         id="path136"
         sodipodi:nodetypes="caasc" /><path
         style="fill:#f4e3d7;fill-opacity:1;stroke:#4d2a3c;stroke-width:2;stroke-linecap:round;stroke-linejoin:round;stroke-miterlimit:51.4;stroke-dasharray:none;stroke-opacity:1"
         d="m 170.49142,166.25126 c -1.09293,0.73661 -3.74226,2.94049 -4.76123,5.00554 -1.05779,2.14373 -1.4843,4.72189 -1.1169,7.08399 0.30045,1.93166 1.14606,3.96913 2.62976,5.24201 2.01943,1.7325 4.9367,2.53737 7.59612,2.45276 2.19606,-0.0699 4.44615,-1.00999 6.13119,-2.42003 1.78891,-1.49696 3.13829,-3.68454 3.6766,-5.95419 0.27291,-1.15065 -0.0349,-2.38398 -0.30976,-3.53416 -0.20919,-0.87538 -1.00581,-2.50576 -1.00581,-2.50576 l -7.81922,-3.666 -3.89279,-2.8206 z"
         id="path137"
         sodipodi:nodetypes="caaaaaaacccc" /><path
         style="fill:#f5bbe8;fill-opacity:1;stroke:#4d2a3c;stroke-width:2;stroke-linecap:round;stroke-linejoin:round;stroke-miterlimit:51.4;stroke-dasharray:none;stroke-opacity:1"
         d="m 196.34606,174.77898 c -0.31437,2.35226 -1.01826,6.81663 -1.56449,7.31032 -0.54623,0.49368 4.6317,-1.72629 5.07099,-3.10962 0.4393,-1.38333 1.45202,-3.76694 1.45202,-3.76694"
         id="path138" /><path
         style="fill:#f7e1f2;fill-opacity:1;stroke:#4d2a3c;stroke-width:2;stroke-linecap:round;stroke-linejoin:round;stroke-miterlimit:51.4;stroke-dasharray:none;stroke-opacity:1"
         d="m 151.23238,104.24597 -1.5593,-41.554756 27.90506,20.877734"
         id="path139"
         sodipodi:nodetypes="ccc" /><path
         style="fill:#f7e1f2;fill-opacity:1;stroke:#4d2a3c;stroke-width:2;stroke-linecap:round;stroke-linejoin:round;stroke-miterlimit:51.4;stroke-dasharray:none;stroke-opacity:1"
         d="m 199.1649,78.41211 18.73895,-28.915011 13.07959,33.444005"
         id="path140" /><path
         sodipodi:type="star"
         style="fill:#ffcc00;fill-opacity:1;stroke:#4d2a3c;stroke-width:2;stroke-linecap:round;stroke-linejoin:round;stroke-miterlimit:51.4;stroke-dasharray:none;stroke-opacity:1"
         id="path141"
         inkscape:flatsided="false"
         sodipodi:sides="4"
         sodipodi:cx="119.25287"
         sodipodi:cy="108.52415"
         sodipodi:r1="8.6345053"
         sodipodi:r2="3.7381659"
         sodipodi:arg1="1.0471976"
         sodipodi:arg2="1.8325957"
         inkscape:rounded="0.15"
         inkscape:randomized="0"
         d="m 123.57012,116.00185 c -0.85066,0.49113 -4.33597,-3.61268 -5.28476,-3.86691 -0.94879,-0.25423 -6.01906,1.55712 -6.51019,0.70646 -0.49113,-0.85066 3.61268,-4.33597 3.86691,-5.28476 0.25423,-0.94879 -1.55713,-6.01906 -0.70646,-6.51019 0.85066,-0.49113 4.33597,3.61268 5.28476,3.86691 0.94879,0.25422 6.01906,-1.55713 6.51019,-0.70647 0.49113,0.85067 -3.61268,4.33597 -3.86691,5.28477 -0.25423,0.94879 1.55712,6.01906 0.70646,6.51019 z"
         transform="matrix(0.67568319,0,0,0.67568319,165.94563,57.152455)" /><path
         sodipodi:type="star"
         style="fill:#ffcc00;fill-opacity:1;stroke:#4d2a3c;stroke-width:2;stroke-linecap:round;stroke-linejoin:round;stroke-miterlimit:51.4;stroke-dasharray:none;stroke-opacity:1"
         id="path142"
         inkscape:flatsided="false"
         sodipodi:sides="5"
         sodipodi:cx="103.18129"
         sodipodi:cy="86.75563"
         sodipodi:r1="15.299182"
         sodipodi:r2="6.6235271"
         sodipodi:arg1="1.8325957"
         sodipodi:arg2="2.4609142"
         inkscape:rounded="0.09"
         inkscape:randomized="0"
         d="M 99.22157,101.53351 C 98.293485,101.28483 98.638509,91.670652 98.033843,90.923951 97.429176,90.17725 87.95336,88.515836 87.903075,87.556328 c -0.05029,-0.959508 9.199955,-3.602313 9.723257,-4.408129 0.523303,-0.805815 -0.824786,-10.331256 0.07222,-10.675585 0.897007,-0.344329 6.268947,7.636501 7.197027,7.885181 0.92809,0.248679 9.57074,-3.976953 10.17541,-3.230252 0.60466,0.746701 -5.32554,8.321931 -5.27525,9.281439 0.0503,0.959507 6.73983,7.873365 6.21652,8.67918 -0.5233,0.805815 -9.5603,-2.493265 -10.45731,-2.148936 -0.89701,0.344328 -5.40529,8.842964 -6.33338,8.594284 z"
         transform="matrix(0.58515881,0.3378416,-0.3378416,0.58515881,205.78759,34.700101)" /><g
         id="g144"
         transform="rotate(-15.232091,178.25936,171.10097)"><path
           id="path143"
           style="opacity:1;fill:none;stroke:#4d2a3c;stroke-width:2;stroke-linecap:round;stroke-linejoin:round;stroke-miterlimit:51.4"
           d="m 214.04607,176.18599 c 0,1.02369 -0.60187,1.95171 -1.53656,2.3692 -0.93469,0.41749 -2.02748,0.24642 -2.78987,-0.43674 -0.76239,-0.68316 -1.05187,-1.75072 -0.73902,-2.72544"
           sodipodi:nodetypes="cssc" /><path
           id="path144"
           style="opacity:1;fill:none;stroke:#4d2a3c;stroke-width:2;stroke-linecap:round;stroke-linejoin:round;stroke-miterlimit:51.4"
           d="m 214.05733,176.2366 c 0,1.02369 0.60187,1.95171 1.53656,2.3692 0.93469,0.41749 2.02748,0.24642 2.78987,-0.43674 0.76239,-0.68316 1.05187,-1.75072 0.73902,-2.72544"
           sodipodi:nodetypes="cssc" /></g><path
         style="fill:#db8ea5;fill-opacity:1;stroke:#c8658a;stroke-width:2;stroke-linecap:round;stroke-linejoin:round;stroke-miterlimit:51.4;stroke-dasharray:none;stroke-opacity:1"
         d="m 190.12259,164.07647 -0.77489,4.48289"
         id="path145" /><path
         style="fill:#eabdca;fill-opacity:1;stroke:#c8658a;stroke-width:2;stroke-linecap:round;stroke-linejoin:round;stroke-miterlimit:51.4;stroke-dasharray:none;stroke-opacity:1"
         d="m 194.46742,163.04163 -0.77489,4.48289"
         id="path146" /><path
         style="fill:#c8658a;fill-opacity:1;stroke:#c8658a;stroke-width:2;stroke-linecap:round;stroke-linejoin:round;stroke-miterlimit:51.4;stroke-dasharray:none;stroke-opacity:1"
         d="m 198.6048,162.30653 -0.77489,4.48289"
         id="path147" /><path
         style="fill:#eabdca;fill-opacity:1;stroke:#c8658a;stroke-width:2;stroke-linecap:round;stroke-linejoin:round;stroke-miterlimit:51.4;stroke-dasharray:none;stroke-opacity:1"
         d="m 228.16904,156.7565 -1.20634,3.16303"
         id="path148" /><path
         style="fill:#c8658a;fill-opacity:1;stroke:#c8658a;stroke-width:2;stroke-linecap:round;stroke-linejoin:round;stroke-miterlimit:51.4;stroke-dasharray:none;stroke-opacity:1"
         d="m 232.18133,156.2657 -1.20634,3.16303"
         id="path149" /><path
         style="fill:#000000;fill-opacity:0;stroke:#c8658a;stroke-width:2;stroke-linecap:round;stroke-linejoin:round;stroke-miterlimit:51.4;stroke-dasharray:none;stroke-opacity:1"
         d="m 235.92432,155.80014 -1.20634,3.16304"
         id="path150" /><path
         style="fill:#f5bbe8;fill-opacity:1;stroke:#4d2a3c;stroke-width:2;stroke-linecap:round;stroke-linejoin:round;stroke-miterlimit:51.4;stroke-dasharray:none;stroke-opacity:1"
         d="m 190.30246,149.34671 4.91443,0.0783 4.78963,-1.27226"
         id="path151" /><path
         style="fill:#f5bbe8;fill-opacity:1;stroke:#4d2a3c;stroke-width:2;stroke-linecap:round;stroke-linejoin:round;stroke-miterlimit:51.4;stroke-dasharray:none;stroke-opacity:1"
         d="m 220.2861,144.49768 3.25458,-0.32189 5.43431,-1.80203"
         id="path152" /><path
         style="fill:#f5bbe8;fill-opacity:1;stroke:#4d2a3c;stroke-width:2;stroke-linecap:round;stroke-linejoin:round;stroke-miterlimit:51.4;stroke-dasharray:none;stroke-opacity:1"
         d="m 178.1757,131.50154 6.09908,-2.7377 7.72202,-2.11762"
         id="path153" /><path
         style="fill:#f5bbe8;fill-opacity:1;stroke:#4d2a3c;stroke-width:2;stroke-linecap:round;stroke-linejoin:round;stroke-miterlimit:51.4;stroke-dasharray:none;stroke-opacity:1"
         d="m 214.577,123.14054 8.493,-1.76784 5.7481,-0.26219"
         id="path154" /><path
         style="fill:#f5bbe8;fill-opacity:1;stroke:#4d2a3c;stroke-width:6;stroke-linecap:round;stroke-linejoin:round;stroke-miterlimit:51.4;stroke-dasharray:none;stroke-opacity:1"
         d="m 176.90413,158.92328 25.20187,-5.2525"
         id="path155" /><path
         style="fill:#f5bbe8;fill-opacity:1;stroke:#4d2a3c;stroke-width:6;stroke-linecap:round;stroke-linejoin:round;stroke-miterlimit:51.4;stroke-dasharray:none;stroke-opacity:1"
         d="m 220.70625,151.06198 19.64515,-4.87897"
         id="path156" /></g><text
       xml:space="preserve"
       style="font-style:normal;font-variant:normal;font-weight:normal;font-stretch:normal;font-size:47.1028px;font-family:'FOT-Yuruka Std';-inkscape-font-specification:'FOT-Yuruka Std, Normal';font-variant-ligatures:normal;font-variant-caps:normal;font-variant-numeric:normal;font-variant-east-asian:normal;opacity:1;fill:#4d2a3c;fill-opacity:1;stroke:none;stroke-width:5.04672;stroke-linecap:round;stroke-linejoin:round;stroke-miterlimit:51.4;stroke-dasharray:none;stroke-opacity:1"
       x="16.777775"
       y="428.46457"
       id="text156"><tspan
         sodipodi:role="line"
         id="tspan156"
         x="16.777775"
         y="428.46457"
         style="stroke-width:5.04672"></tspan><tspan
         sodipodi:role="line"
         x="16.777775"
         y="487.34308"
         id="tspan157"
         style="stroke-width:5.04672"></tspan></text><text
       xml:space="preserve"
       style="font-style:normal;font-variant:normal;font-weight:normal;font-stretch:normal;font-size:47.1028px;font-family:'FOT-Yuruka Std';-inkscape-font-specification:'FOT-Yuruka Std, Normal';font-variant-ligatures:normal;font-variant-caps:normal;font-variant-numeric:normal;font-variant-east-asian:normal;opacity:1;fill:#4d2a3c;fill-opacity:1;stroke:none;stroke-width:5.04672;stroke-linecap:round;stroke-linejoin:round;stroke-miterlimit:51.4;stroke-dasharray:none;stroke-opacity:1"
       x="444.22638"
       y="64.554573"
       id="text159"><tspan
         sodipodi:role="line"
         id="tspan158"
         x="444.22638"
         y="64.554573"
         style="stroke-width:5.04672"></tspan><tspan
         sodipodi:role="line"
         x="444.22638"
         y="123.43307"
         id="tspan159"
         style="stroke-width:5.04672"></tspan></text><text
       xml:space="preserve"
       style="font-style:normal;font-variant:normal;font-weight:normal;font-stretch:normal;font-size:29.9079px;font-family:'FOT-Yuruka Std';-inkscape-font-specification:'FOT-Yuruka Std, Normal';font-variant-ligatures:normal;font-variant-caps:normal;font-variant-numeric:normal;font-variant-east-asian:normal;opacity:1;fill:#4d2a3c;fill-opacity:1;stroke:none;stroke-width:3.20441;stroke-linecap:round;stroke-linejoin:round;stroke-miterlimit:51.4;stroke-dasharray:none;stroke-opacity:1"
       x="389.39835"
       y="528.02863"
       id="text160"
       transform="scale(1.1331492,0.88249632)"><tspan
         sodipodi:role="line"
         id="tspan160"
         x="389.39835"
         y="528.02863"
         style="stroke-width:3.20441"></tspan><tspan
         sodipodi:role="line"
         x="389.39835"
         y="565.41351"
         id="tspan161"
         style="stroke-width:3.20441"></tspan></text></g></svg>
