<?xml version="1.0" encoding="UTF-8" standalone="no"?>
<!-- Created with Inkscape (http://www.inkscape.org/) -->

<svg
   width="200.62939"
   height="175.50455"
   viewBox="0 0 200.62939 175.50455"
   version="1.1"
   id="svg1"
   xml:space="preserve"
   xmlns="http://www.w3.org/2000/svg"
   xmlns:svg="http://www.w3.org/2000/svg"><defs
     id="defs1" /><g
     id="layer1"
     transform="translate(-1752.5531,313.43597)"><g
       id="g7"
       transform="matrix(4.1431192,-1.1101454,1.1101454,4.1431192,1035.1344,-1074.6929)"
       style="fill:#f4b8e4;fill-opacity:1;stroke:#1d1e2e;stroke-width:1.86512;stroke-dasharray:none;stroke-opacity:1"><rect
         style="fill:#f4b8e4;fill-opacity:1;stroke:#1d1e2e;stroke-width:1.86512;stroke-linecap:round;stroke-linejoin:round;stroke-miterlimit:51.4;stroke-dasharray:none;stroke-opacity:1"
         id="rect4"
         width="6.5298686"
         height="8.27351"
         x="276.33142"
         y="-63.656452"
         ry="3.2649343"
         transform="rotate(69.999946)" /><path
         style="fill:#f4b8e4;fill-opacity:1;stroke:#1d1e2e;stroke-width:1.86512;stroke-linecap:round;stroke-linejoin:round;stroke-miterlimit:51.4;stroke-dasharray:none;stroke-opacity:1"
         id="path4"
         d="m 242.52551,293.07082 c -2.80977,4.86665 -5.3313,2.52898 -10.95083,2.52898 -5.61953,0 -8.14107,2.33767 -10.95083,-2.52898 -2.80977,-4.86666 0.47548,-5.88154 3.28525,-10.74819 2.80976,-4.86666 2.04605,-8.21921 7.66558,-8.21921 5.61953,0 4.85581,3.35255 7.66558,8.21921 2.80976,4.86665 6.09501,5.88153 3.28525,10.74819 z"
         transform="translate(-99.066179,-37.437344)" /><rect
         style="fill:#f4b8e4;fill-opacity:1;stroke:#1d1e2e;stroke-width:1.86512;stroke-linecap:round;stroke-linejoin:round;stroke-miterlimit:51.4;stroke-dasharray:none;stroke-opacity:1"
         id="rect5"
         width="6.5298686"
         height="8.27351"
         x="185.69063"
         y="-193.65089"
         ry="3.2649343"
         transform="rotate(109.99987)" /><rect
         style="fill:#f4b8e4;fill-opacity:1;stroke:#1d1e2e;stroke-width:1.86512;stroke-linecap:round;stroke-linejoin:round;stroke-miterlimit:51.4;stroke-dasharray:none;stroke-opacity:1"
         id="rect6"
         width="7.6321402"
         height="9.6701155"
         x="203.60265"
         y="163.79698"
         ry="3.8160701"
         transform="rotate(19.162935)" /><rect
         style="fill:#f4b8e4;fill-opacity:1;stroke:#1d1e2e;stroke-width:1.86512;stroke-linecap:round;stroke-linejoin:round;stroke-miterlimit:51.4;stroke-dasharray:none;stroke-opacity:1"
         id="rect7"
         width="7.5747414"
         height="9.5973902"
         x="-66.411583"
         y="-256.36093"
         ry="3.7873707"
         transform="rotate(165.27131)" /></g></g></svg>
