<?xml version="1.0" encoding="UTF-8" standalone="no"?>
<!-- Created with Inkscape (http://www.inkscape.org/) -->

<svg
   width="1357.6366"
   height="195.86508"
   viewBox="0 0 1357.6366 195.86508"
   version="1.1"
   id="svg1"
   xml:space="preserve"
   xmlns="http://www.w3.org/2000/svg"
   xmlns:svg="http://www.w3.org/2000/svg"><defs
     id="defs1" /><g
     id="layer1"
     transform="translate(-1.3267722e-6,570.31427)"><g
       id="g926"
       transform="rotate(29.99709,4661.46,2193.5323)"
       clip-path="none"
       style="fill:#c6c1f0;fill-opacity:1"><g
         id="g922"
         transform="rotate(32.88365,-1942.5627,850.66787)"
         style="fill:#c6c1f0;fill-opacity:1"><path
           id="path880"
           style="fill:#c6c1f0;fill-opacity:1;stroke-width:0.4;stroke-linecap:round;stroke-linejoin:round;stroke-miterlimit:51.4"
           d="m 347.96289,109.88672 v 13.0039 h 81.7207 l 40.86133,70.77344 11.26367,-6.50195 -44.61523,-77.27539 z" /><path
           id="path882"
           style="fill:#c6c1f0;fill-opacity:1;stroke-width:0.4;stroke-linecap:round;stroke-linejoin:round;stroke-miterlimit:51.4"
           d="m 318.36719,167.65626 v 13.0039 h 81.7207 l 40.86133,70.77344 11.26367,-6.50195 -44.61523,-77.27539 z" /><path
           id="path884"
           style="fill:#c6c1f0;fill-opacity:1;stroke-width:0.4;stroke-linecap:round;stroke-linejoin:round;stroke-miterlimit:51.4"
           d="m 288.77149,225.4258 v 13.0039 h 81.7207 l 40.86133,70.77344 11.26367,-6.50195 -44.61523,-77.27539 z" /><path
           id="path886"
           style="fill:#c6c1f0;fill-opacity:1;stroke-width:0.4;stroke-linecap:round;stroke-linejoin:round;stroke-miterlimit:51.4"
           d="m 259.17579,283.19534 v 13.0039 h 81.7207 l 40.86133,70.77344 11.26367,-6.50195 -44.61523,-77.27539 z" /><path
           id="path888"
           style="fill:#c6c1f0;fill-opacity:1;stroke-width:0.4;stroke-linecap:round;stroke-linejoin:round;stroke-miterlimit:51.4"
           d="m 229.58009,340.96488 v 13.0039 h 81.7207 l 40.86133,70.77344 11.26367,-6.50195 -44.61523,-77.27539 z" /><path
           id="path890"
           style="fill:#c6c1f0;fill-opacity:1;stroke-width:0.4;stroke-linecap:round;stroke-linejoin:round;stroke-miterlimit:51.4"
           d="m 199.98439,398.73442 v 13.0039 h 81.7207 l 40.86133,70.77344 11.26367,-6.50195 -44.61523,-77.27539 z" /><path
           id="path892"
           style="fill:#c6c1f0;fill-opacity:1;stroke-width:0.4;stroke-linecap:round;stroke-linejoin:round;stroke-miterlimit:51.4"
           d="m 170.38869,456.50396 v 13.0039 h 81.7207 l 40.86133,70.77344 11.26367,-6.50195 -44.61523,-77.27539 z" /><path
           id="path894"
           style="fill:#c6c1f0;fill-opacity:1;stroke-width:0.4;stroke-linecap:round;stroke-linejoin:round;stroke-miterlimit:51.4"
           d="m 140.79299,514.2735 v 13.0039 h 81.7207 l 40.86133,70.77344 11.26367,-6.50195 -44.61523,-77.27539 z" /><path
           id="path896"
           style="fill:#c6c1f0;fill-opacity:1;stroke-width:0.4;stroke-linecap:round;stroke-linejoin:round;stroke-miterlimit:51.4"
           d="m 111.19729,572.04304 v 13.0039 h 81.7207 l 40.86133,70.77344 11.26367,-6.50195 -44.61523,-77.27539 z" /><path
           id="path898"
           style="fill:#c6c1f0;fill-opacity:1;stroke-width:0.4;stroke-linecap:round;stroke-linejoin:round;stroke-miterlimit:51.4"
           d="m 81.60159,629.81258 v 13.0039 h 81.7207 l 40.86133,70.77344 11.26367,-6.50195 -44.61523,-77.27539 z" /><path
           id="path900"
           style="fill:#c6c1f0;fill-opacity:1;stroke-width:0.4;stroke-linecap:round;stroke-linejoin:round;stroke-miterlimit:51.4"
           d="m 52.00589,687.58212 v 13.0039 h 81.7207 l 40.86133,70.77344 11.26367,-6.50195 -44.61523,-77.27539 z" /><path
           id="path902"
           style="fill:#c6c1f0;fill-opacity:1;stroke-width:0.4;stroke-linecap:round;stroke-linejoin:round;stroke-miterlimit:51.4"
           d="m 22.41019,745.35166 v 13.0039 h 81.7207 l 40.86133,70.77344 11.26367,-6.50195 -44.61523,-77.27539 z" /><path
           id="path904"
           style="fill:#c6c1f0;fill-opacity:1;stroke-width:0.4;stroke-linecap:round;stroke-linejoin:round;stroke-miterlimit:51.4"
           d="m -7.18551,803.1212 v 13.0039 h 81.7207 l 40.86133,70.77344 11.26367,-6.50195 -44.61523,-77.27539 z" /><path
           id="path906"
           style="fill:#c6c1f0;fill-opacity:1;stroke-width:0.4;stroke-linecap:round;stroke-linejoin:round;stroke-miterlimit:51.4"
           d="m -36.78121,860.89074 v 13.0039 h 81.7207 l 40.86133,70.77344 11.26367,-6.50195 -44.61523,-77.27539 z" /><path
           id="path908"
           style="fill:#c6c1f0;fill-opacity:1;stroke-width:0.4;stroke-linecap:round;stroke-linejoin:round;stroke-miterlimit:51.4"
           d="m -66.37691,918.66028 v 13.0039 h 81.7207 l 40.86133,70.77342 11.26367,-6.50193 -44.61523,-77.27539 z" /><path
           id="path910"
           style="fill:#c6c1f0;fill-opacity:1;stroke-width:0.4;stroke-linecap:round;stroke-linejoin:round;stroke-miterlimit:51.4"
           d="m -95.97261,976.42982 v 13.0039 h 81.7207 l 40.86133,70.77348 11.26367,-6.502 -44.61523,-77.27538 z" /><path
           id="path912"
           style="fill:#c6c1f0;fill-opacity:1;stroke-width:0.4;stroke-linecap:round;stroke-linejoin:round;stroke-miterlimit:51.4"
           d="m -125.56831,1034.1994 v 13.0039 h 81.7207 l 40.86133,70.7735 11.26367,-6.502 -44.61523,-77.2754 z" /><path
           id="path914"
           style="fill:#c6c1f0;fill-opacity:1;stroke-width:0.4;stroke-linecap:round;stroke-linejoin:round;stroke-miterlimit:51.4"
           d="m -155.16401,1091.969 v 13.0039 h 81.7207 l 40.86133,70.7735 11.26367,-6.502 -44.61523,-77.2754 z" /><path
           id="path916"
           style="fill:#c6c1f0;fill-opacity:1;stroke-width:0.4;stroke-linecap:round;stroke-linejoin:round;stroke-miterlimit:51.4"
           d="m -184.75971,1149.7386 v 13.0039 h 81.7207 l 40.86133,70.7735 11.26367,-6.502 -44.61523,-77.2754 z" /><path
           id="path918"
           style="fill:#c6c1f0;fill-opacity:1;stroke-width:0.4;stroke-linecap:round;stroke-linejoin:round;stroke-miterlimit:51.4"
           d="m -214.35541,1207.5082 v 13.0039 h 81.7207 l 40.86133,70.7735 11.26367,-6.502 -44.61523,-77.2754 z" /><path
           id="path920"
           style="fill:#c6c1f0;fill-opacity:1;stroke-width:0.4;stroke-linecap:round;stroke-linejoin:round;stroke-miterlimit:51.4"
           d="m -243.95111,1265.2778 v 13.0039 h 81.7207 l 40.86133,70.7735 11.26367,-6.502 -44.61523,-77.2754 z" /></g><path
         id="path924"
         style="fill:#c6c1f0;fill-opacity:1;stroke-width:0.23551;stroke-linecap:round;stroke-linejoin:round;stroke-miterlimit:51.4"
         d="m 1649.16,363.51635 -10e-5,116.01578 V 1720.6474 l 13.0066,-7e-4 V 479.53213 363.51635 Z"
         transform="rotate(60)" /></g></g></svg>
