<?xml version="1.0" encoding="UTF-8" standalone="no"?>
<!-- Created with Inkscape (http://www.inkscape.org/) -->

<svg
   width="151.39709"
   height="151.39708"
   viewBox="0 0 151.39709 151.39708"
   version="1.1"
   id="svg1"
   xml:space="preserve"
   xmlns="http://www.w3.org/2000/svg"
   xmlns:svg="http://www.w3.org/2000/svg"><defs
     id="defs1" /><g
     id="layer1"
     transform="translate(-1492.9156,301.38223)"><path
       style="fill:#e6d1a3;fill-opacity:1;stroke:#1d1e2e;stroke-width:12;stroke-linecap:round;stroke-linejoin:round;stroke-miterlimit:51.4;stroke-dasharray:none;stroke-opacity:1"
       id="path86"
       d="m 1700.97,896.16084 c -11.512,0 -22.8388,-62.07626 -30.979,-70.21647 -8.1402,-8.14021 -70.2165,-19.46698 -70.2165,-30.97897 0,-11.512 62.0763,-22.83877 70.2165,-30.97898 8.1402,-8.14021 19.467,-70.21647 30.979,-70.21647 11.512,0 22.8387,62.07626 30.9789,70.21647 8.1403,8.14021 70.2165,19.46697 70.2165,30.97897 0,11.512 -62.0762,22.83877 -70.2165,30.97898 -8.1402,8.14021 -19.4669,70.21647 -30.9789,70.21647 z"
       transform="matrix(0.7061731,0,0,0.7061731,367.43492,-787.06686)" /></g></svg>
